G04 ================== begin FILE IDENTIFICATION RECORD ==================*
G04 Layout Name:  ANALYSIS_0210_1.brd*
G04 Film Name:    DRILL*
G04 File Format:  Gerber RS274X*
G04 File Origin:  Cadence Allegro 16.6-P004*
G04 Origin Date:  Sat Feb 11 10:49:52 2017*
G04 *
G04 Layer:  MANUFACTURING/NCLEGEND-1-2*
G04 Layer:  MANUFACTURING/PHOTOPLOT_OUTLINE*
G04 Layer:  MANUFACTURING/NCDRILL_LEGEND*
G04 Layer:  MANUFACTURING/NCDRILL_FIGURE*
G04 Layer:  BOARD GEOMETRY/OUTLINE*
G04 *
G04 Offset:    (0.000 0.000)*
G04 Mirror:    No*
G04 Mode:      Positive*
G04 Rotation:  0*
G04 FullContactRelief:  No*
G04 UndefLineWidth:     5.000*
G04 ================== end FILE IDENTIFICATION RECORD ====================*
%FSLAX25Y25*MOIN*%
%IR0*IPPOS*OFA0.00000B0.00000*MIA0B0*SFA1.00000B1.00000*%
%AMMACRO16*
1,1,.005,.04,0.0*
20,1,.005,.04,0.0,.039392,-.006946,0.0*
1,1,.005,.039392,-.006946*
20,1,.005,.039392,-.006946,.037588,-.013681,0.0*
1,1,.005,.037588,-.013681*
20,1,.005,.037588,-.013681,.034641,-.02,0.0*
1,1,.005,.034641,-.02*
20,1,.005,.034641,-.02,.030642,-.025712,0.0*
1,1,.005,.030642,-.025712*
20,1,.005,.030642,-.025712,.025712,-.030642,0.0*
1,1,.005,.025712,-.030642*
20,1,.005,.025712,-.030642,.02,-.034641,0.0*
1,1,.005,.02,-.034641*
20,1,.005,.02,-.034641,.013681,-.037588,0.0*
1,1,.005,.013681,-.037588*
20,1,.005,.013681,-.037588,.006946,-.039392,0.0*
1,1,.005,.006946,-.039392*
20,1,.005,.006946,-.039392,0.0,-.04,0.0*
1,1,.005,0.0,-.04*
20,1,.005,0.0,-.04,-.006946,-.039392,0.0*
1,1,.005,-.006946,-.039392*
20,1,.005,-.006946,-.039392,-.013681,-.037588,0.0*
1,1,.005,-.013681,-.037588*
20,1,.005,-.013681,-.037588,-.02,-.034641,0.0*
1,1,.005,-.02,-.034641*
20,1,.005,-.02,-.034641,-.025712,-.030642,0.0*
1,1,.005,-.025712,-.030642*
20,1,.005,-.025712,-.030642,-.030642,-.025712,0.0*
1,1,.005,-.030642,-.025712*
20,1,.005,-.030642,-.025712,-.034641,-.02,0.0*
1,1,.005,-.034641,-.02*
20,1,.005,-.034641,-.02,-.037588,-.013681,0.0*
1,1,.005,-.037588,-.013681*
20,1,.005,-.037588,-.013681,-.039392,-.006946,0.0*
1,1,.005,-.039392,-.006946*
20,1,.005,-.039392,-.006946,-.04,0.0,0.0*
1,1,.005,-.04,0.0*
20,1,.005,-.04,0.0,-.039392,.006946,0.0*
1,1,.005,-.039392,.006946*
20,1,.005,-.039392,.006946,-.037588,.013681,0.0*
1,1,.005,-.037588,.013681*
20,1,.005,-.037588,.013681,-.034641,.02,0.0*
1,1,.005,-.034641,.02*
20,1,.005,-.034641,.02,-.030642,.025712,0.0*
1,1,.005,-.030642,.025712*
20,1,.005,-.030642,.025712,-.025712,.030642,0.0*
1,1,.005,-.025712,.030642*
20,1,.005,-.025712,.030642,-.02,.034641,0.0*
1,1,.005,-.02,.034641*
20,1,.005,-.02,.034641,-.013681,.037588,0.0*
1,1,.005,-.013681,.037588*
20,1,.005,-.013681,.037588,-.006946,.039392,0.0*
1,1,.005,-.006946,.039392*
20,1,.005,-.006946,.039392,0.0,.04,0.0*
1,1,.005,0.0,.04*
20,1,.005,0.0,.04,.006946,.039392,0.0*
1,1,.005,.006946,.039392*
20,1,.005,.006946,.039392,.013681,.037588,0.0*
1,1,.005,.013681,.037588*
20,1,.005,.013681,.037588,.02,.034641,0.0*
1,1,.005,.02,.034641*
20,1,.005,.02,.034641,.025712,.030642,0.0*
1,1,.005,.025712,.030642*
20,1,.005,.025712,.030642,.030642,.025712,0.0*
1,1,.005,.030642,.025712*
20,1,.005,.030642,.025712,.034641,.02,0.0*
1,1,.005,.034641,.02*
20,1,.005,.034641,.02,.037588,.013681,0.0*
1,1,.005,.037588,.013681*
20,1,.005,.037588,.013681,.039392,.006946,0.0*
1,1,.005,.039392,.006946*
20,1,.005,.039392,.006946,.04,0.0,0.0*
1,1,.005,.04,0.0*
%
%ADD16MACRO16*%
%AMMACRO12*
1,1,.005,.014,0.0*
20,1,.005,.014,0.0,.013787,-.002431,0.0*
1,1,.005,.013787,-.002431*
20,1,.005,.013787,-.002431,.013156,-.004788,0.0*
1,1,.005,.013156,-.004788*
20,1,.005,.013156,-.004788,.012124,-.007,0.0*
1,1,.005,.012124,-.007*
20,1,.005,.012124,-.007,.010725,-.008999,0.0*
1,1,.005,.010725,-.008999*
20,1,.005,.010725,-.008999,.008999,-.010725,0.0*
1,1,.005,.008999,-.010725*
20,1,.005,.008999,-.010725,.007,-.012124,0.0*
1,1,.005,.007,-.012124*
20,1,.005,.007,-.012124,.004788,-.013156,0.0*
1,1,.005,.004788,-.013156*
20,1,.005,.004788,-.013156,.002431,-.013787,0.0*
1,1,.005,.002431,-.013787*
20,1,.005,.002431,-.013787,0.0,-.014,0.0*
1,1,.005,0.0,-.014*
20,1,.005,0.0,-.014,-.002431,-.013787,0.0*
1,1,.005,-.002431,-.013787*
20,1,.005,-.002431,-.013787,-.004788,-.013156,0.0*
1,1,.005,-.004788,-.013156*
20,1,.005,-.004788,-.013156,-.007,-.012124,0.0*
1,1,.005,-.007,-.012124*
20,1,.005,-.007,-.012124,-.008999,-.010725,0.0*
1,1,.005,-.008999,-.010725*
20,1,.005,-.008999,-.010725,-.010725,-.008999,0.0*
1,1,.005,-.010725,-.008999*
20,1,.005,-.010725,-.008999,-.012124,-.007,0.0*
1,1,.005,-.012124,-.007*
20,1,.005,-.012124,-.007,-.013156,-.004788,0.0*
1,1,.005,-.013156,-.004788*
20,1,.005,-.013156,-.004788,-.013787,-.002431,0.0*
1,1,.005,-.013787,-.002431*
20,1,.005,-.013787,-.002431,-.014,0.0,0.0*
1,1,.005,-.014,0.0*
20,1,.005,-.014,0.0,-.013787,.002431,0.0*
1,1,.005,-.013787,.002431*
20,1,.005,-.013787,.002431,-.013156,.004788,0.0*
1,1,.005,-.013156,.004788*
20,1,.005,-.013156,.004788,-.012124,.007,0.0*
1,1,.005,-.012124,.007*
20,1,.005,-.012124,.007,-.010725,.008999,0.0*
1,1,.005,-.010725,.008999*
20,1,.005,-.010725,.008999,-.008999,.010725,0.0*
1,1,.005,-.008999,.010725*
20,1,.005,-.008999,.010725,-.007,.012124,0.0*
1,1,.005,-.007,.012124*
20,1,.005,-.007,.012124,-.004788,.013156,0.0*
1,1,.005,-.004788,.013156*
20,1,.005,-.004788,.013156,-.002431,.013787,0.0*
1,1,.005,-.002431,.013787*
20,1,.005,-.002431,.013787,0.0,.014,0.0*
1,1,.005,0.0,.014*
20,1,.005,0.0,.014,.002431,.013787,0.0*
1,1,.005,.002431,.013787*
20,1,.005,.002431,.013787,.004788,.013156,0.0*
1,1,.005,.004788,.013156*
20,1,.005,.004788,.013156,.007,.012124,0.0*
1,1,.005,.007,.012124*
20,1,.005,.007,.012124,.008999,.010725,0.0*
1,1,.005,.008999,.010725*
20,1,.005,.008999,.010725,.010725,.008999,0.0*
1,1,.005,.010725,.008999*
20,1,.005,.010725,.008999,.012124,.007,0.0*
1,1,.005,.012124,.007*
20,1,.005,.012124,.007,.013156,.004788,0.0*
1,1,.005,.013156,.004788*
20,1,.005,.013156,.004788,.013787,.002431,0.0*
1,1,.005,.013787,.002431*
20,1,.005,.013787,.002431,.014,0.0,0.0*
1,1,.005,.014,0.0*
1,1,.005,.007,0.0*
20,1,.005,.007,0.0,-.007,0.0,0.0*
1,1,.005,-.007,0.0*
1,1,.005,0.0,.007*
20,1,.005,0.0,.007,0.0,-.007,0.0*
1,1,.005,0.0,-.007*
%
%ADD12MACRO12*%
%AMMACRO15*
1,1,.005,.03,0.0*
20,1,.005,.03,0.0,.029544,-.005209,0.0*
1,1,.005,.029544,-.005209*
20,1,.005,.029544,-.005209,.028191,-.010261,0.0*
1,1,.005,.028191,-.010261*
20,1,.005,.028191,-.010261,.025981,-.015,0.0*
1,1,.005,.025981,-.015*
20,1,.005,.025981,-.015,.022981,-.019284,0.0*
1,1,.005,.022981,-.019284*
20,1,.005,.022981,-.019284,.019284,-.022981,0.0*
1,1,.005,.019284,-.022981*
20,1,.005,.019284,-.022981,.015,-.025981,0.0*
1,1,.005,.015,-.025981*
20,1,.005,.015,-.025981,.010261,-.028191,0.0*
1,1,.005,.010261,-.028191*
20,1,.005,.010261,-.028191,.005209,-.029544,0.0*
1,1,.005,.005209,-.029544*
20,1,.005,.005209,-.029544,0.0,-.03,0.0*
1,1,.005,0.0,-.03*
20,1,.005,0.0,-.03,-.005209,-.029544,0.0*
1,1,.005,-.005209,-.029544*
20,1,.005,-.005209,-.029544,-.010261,-.028191,0.0*
1,1,.005,-.010261,-.028191*
20,1,.005,-.010261,-.028191,-.015,-.025981,0.0*
1,1,.005,-.015,-.025981*
20,1,.005,-.015,-.025981,-.019284,-.022981,0.0*
1,1,.005,-.019284,-.022981*
20,1,.005,-.019284,-.022981,-.022981,-.019284,0.0*
1,1,.005,-.022981,-.019284*
20,1,.005,-.022981,-.019284,-.025981,-.015,0.0*
1,1,.005,-.025981,-.015*
20,1,.005,-.025981,-.015,-.028191,-.010261,0.0*
1,1,.005,-.028191,-.010261*
20,1,.005,-.028191,-.010261,-.029544,-.005209,0.0*
1,1,.005,-.029544,-.005209*
20,1,.005,-.029544,-.005209,-.03,0.0,0.0*
1,1,.005,-.03,0.0*
20,1,.005,-.03,0.0,-.029544,.005209,0.0*
1,1,.005,-.029544,.005209*
20,1,.005,-.029544,.005209,-.028191,.010261,0.0*
1,1,.005,-.028191,.010261*
20,1,.005,-.028191,.010261,-.025981,.015,0.0*
1,1,.005,-.025981,.015*
20,1,.005,-.025981,.015,-.022981,.019284,0.0*
1,1,.005,-.022981,.019284*
20,1,.005,-.022981,.019284,-.019284,.022981,0.0*
1,1,.005,-.019284,.022981*
20,1,.005,-.019284,.022981,-.015,.025981,0.0*
1,1,.005,-.015,.025981*
20,1,.005,-.015,.025981,-.010261,.028191,0.0*
1,1,.005,-.010261,.028191*
20,1,.005,-.010261,.028191,-.005209,.029544,0.0*
1,1,.005,-.005209,.029544*
20,1,.005,-.005209,.029544,0.0,.03,0.0*
1,1,.005,0.0,.03*
20,1,.005,0.0,.03,.005209,.029544,0.0*
1,1,.005,.005209,.029544*
20,1,.005,.005209,.029544,.010261,.028191,0.0*
1,1,.005,.010261,.028191*
20,1,.005,.010261,.028191,.015,.025981,0.0*
1,1,.005,.015,.025981*
20,1,.005,.015,.025981,.019284,.022981,0.0*
1,1,.005,.019284,.022981*
20,1,.005,.019284,.022981,.022981,.019284,0.0*
1,1,.005,.022981,.019284*
20,1,.005,.022981,.019284,.025981,.015,0.0*
1,1,.005,.025981,.015*
20,1,.005,.025981,.015,.028191,.010261,0.0*
1,1,.005,.028191,.010261*
20,1,.005,.028191,.010261,.029544,.005209,0.0*
1,1,.005,.029544,.005209*
20,1,.005,.029544,.005209,.03,0.0,0.0*
1,1,.005,.03,0.0*
1,1,.005,-.012501,-.015*
20,1,.005,-.012501,-.015,0.0,.015,0.0*
1,1,.005,0.0,.015*
20,1,.005,0.0,.015,.012501,-.015,0.0*
1,1,.005,.012501,-.015*
1,1,.005,.008,-.0045*
20,1,.005,.008,-.0045,-.008001,-.0045,0.0*
1,1,.005,-.008001,-.0045*
%
%ADD15MACRO15*%
%AMMACRO17*
1,1,.005,.03,0.0*
20,1,.005,.03,0.0,.029544,-.005209,0.0*
1,1,.005,.029544,-.005209*
20,1,.005,.029544,-.005209,.028191,-.010261,0.0*
1,1,.005,.028191,-.010261*
20,1,.005,.028191,-.010261,.025981,-.015,0.0*
1,1,.005,.025981,-.015*
20,1,.005,.025981,-.015,.022981,-.019284,0.0*
1,1,.005,.022981,-.019284*
20,1,.005,.022981,-.019284,.019284,-.022981,0.0*
1,1,.005,.019284,-.022981*
20,1,.005,.019284,-.022981,.015,-.025981,0.0*
1,1,.005,.015,-.025981*
20,1,.005,.015,-.025981,.010261,-.028191,0.0*
1,1,.005,.010261,-.028191*
20,1,.005,.010261,-.028191,.005209,-.029544,0.0*
1,1,.005,.005209,-.029544*
20,1,.005,.005209,-.029544,0.0,-.03,0.0*
1,1,.005,0.0,-.03*
20,1,.005,0.0,-.03,-.005209,-.029544,0.0*
1,1,.005,-.005209,-.029544*
20,1,.005,-.005209,-.029544,-.010261,-.028191,0.0*
1,1,.005,-.010261,-.028191*
20,1,.005,-.010261,-.028191,-.015,-.025981,0.0*
1,1,.005,-.015,-.025981*
20,1,.005,-.015,-.025981,-.019284,-.022981,0.0*
1,1,.005,-.019284,-.022981*
20,1,.005,-.019284,-.022981,-.022981,-.019284,0.0*
1,1,.005,-.022981,-.019284*
20,1,.005,-.022981,-.019284,-.025981,-.015,0.0*
1,1,.005,-.025981,-.015*
20,1,.005,-.025981,-.015,-.028191,-.010261,0.0*
1,1,.005,-.028191,-.010261*
20,1,.005,-.028191,-.010261,-.029544,-.005209,0.0*
1,1,.005,-.029544,-.005209*
20,1,.005,-.029544,-.005209,-.03,0.0,0.0*
1,1,.005,-.03,0.0*
20,1,.005,-.03,0.0,-.029544,.005209,0.0*
1,1,.005,-.029544,.005209*
20,1,.005,-.029544,.005209,-.028191,.010261,0.0*
1,1,.005,-.028191,.010261*
20,1,.005,-.028191,.010261,-.025981,.015,0.0*
1,1,.005,-.025981,.015*
20,1,.005,-.025981,.015,-.022981,.019284,0.0*
1,1,.005,-.022981,.019284*
20,1,.005,-.022981,.019284,-.019284,.022981,0.0*
1,1,.005,-.019284,.022981*
20,1,.005,-.019284,.022981,-.015,.025981,0.0*
1,1,.005,-.015,.025981*
20,1,.005,-.015,.025981,-.010261,.028191,0.0*
1,1,.005,-.010261,.028191*
20,1,.005,-.010261,.028191,-.005209,.029544,0.0*
1,1,.005,-.005209,.029544*
20,1,.005,-.005209,.029544,0.0,.03,0.0*
1,1,.005,0.0,.03*
20,1,.005,0.0,.03,.005209,.029544,0.0*
1,1,.005,.005209,.029544*
20,1,.005,.005209,.029544,.010261,.028191,0.0*
1,1,.005,.010261,.028191*
20,1,.005,.010261,.028191,.015,.025981,0.0*
1,1,.005,.015,.025981*
20,1,.005,.015,.025981,.019284,.022981,0.0*
1,1,.005,.019284,.022981*
20,1,.005,.019284,.022981,.022981,.019284,0.0*
1,1,.005,.022981,.019284*
20,1,.005,.022981,.019284,.025981,.015,0.0*
1,1,.005,.025981,.015*
20,1,.005,.025981,.015,.028191,.010261,0.0*
1,1,.005,.028191,.010261*
20,1,.005,.028191,.010261,.029544,.005209,0.0*
1,1,.005,.029544,.005209*
20,1,.005,.029544,.005209,.03,0.0,0.0*
1,1,.005,.03,0.0*
1,1,.005,.004,.001*
20,1,.005,.004,.001,.006,.0025,0.0*
1,1,.005,.006,.0025*
20,1,.005,.006,.0025,.0075,.004999,0.0*
1,1,.005,.0075,.004999*
20,1,.005,.0075,.004999,.0085,.0085,0.0*
1,1,.005,.0085,.0085*
20,1,.005,.0085,.0085,.0075,.0115,0.0*
1,1,.005,.0075,.0115*
20,1,.005,.0075,.0115,.0055,.013499,0.0*
1,1,.005,.0055,.013499*
20,1,.005,.0055,.013499,.002,.015,0.0*
1,1,.005,.002,.015*
20,1,.005,.002,.015,-.0115,.015,0.0*
1,1,.005,-.0115,.015*
20,1,.005,-.0115,.015,-.0115,-.015,0.0*
1,1,.005,-.0115,-.015*
20,1,.005,-.0115,-.015,.005,-.015,0.0*
1,1,.005,.005,-.015*
20,1,.005,.005,-.015,.0085,-.013,0.0*
1,1,.005,.0085,-.013*
20,1,.005,.0085,-.013,.0105,-.01,0.0*
1,1,.005,.0105,-.01*
20,1,.005,.0105,-.01,.0115,-.0065,0.0*
1,1,.005,.0115,-.0065*
20,1,.005,.0115,-.0065,.0105,-.003001,0.0*
1,1,.005,.0105,-.003001*
20,1,.005,.0105,-.003001,.0075,0.0,0.0*
1,1,.005,.0075,0.0*
20,1,.005,.0075,0.0,.004,.001,0.0*
1,1,.005,.004,.001*
20,1,.005,.004,.001,-.0115,.001,0.0*
1,1,.005,-.0115,.001*
%
%ADD17MACRO17*%
%AMMACRO20*
1,1,.005,.0215,0.0*
20,1,.005,.0215,0.0,.021173,-.003733,0.0*
1,1,.005,.021173,-.003733*
20,1,.005,.021173,-.003733,.020203,-.007353,0.0*
1,1,.005,.020203,-.007353*
20,1,.005,.020203,-.007353,.01862,-.01075,0.0*
1,1,.005,.01862,-.01075*
20,1,.005,.01862,-.01075,.01647,-.01382,0.0*
1,1,.005,.01647,-.01382*
20,1,.005,.01647,-.01382,.01382,-.01647,0.0*
1,1,.005,.01382,-.01647*
20,1,.005,.01382,-.01647,.01075,-.01862,0.0*
1,1,.005,.01075,-.01862*
20,1,.005,.01075,-.01862,.007353,-.020203,0.0*
1,1,.005,.007353,-.020203*
20,1,.005,.007353,-.020203,.003733,-.021173,0.0*
1,1,.005,.003733,-.021173*
20,1,.005,.003733,-.021173,0.0,-.0215,0.0*
1,1,.005,0.0,-.0215*
20,1,.005,0.0,-.0215,-.003733,-.021173,0.0*
1,1,.005,-.003733,-.021173*
20,1,.005,-.003733,-.021173,-.007353,-.020203,0.0*
1,1,.005,-.007353,-.020203*
20,1,.005,-.007353,-.020203,-.01075,-.01862,0.0*
1,1,.005,-.01075,-.01862*
20,1,.005,-.01075,-.01862,-.01382,-.01647,0.0*
1,1,.005,-.01382,-.01647*
20,1,.005,-.01382,-.01647,-.01647,-.01382,0.0*
1,1,.005,-.01647,-.01382*
20,1,.005,-.01647,-.01382,-.01862,-.01075,0.0*
1,1,.005,-.01862,-.01075*
20,1,.005,-.01862,-.01075,-.020203,-.007353,0.0*
1,1,.005,-.020203,-.007353*
20,1,.005,-.020203,-.007353,-.021173,-.003733,0.0*
1,1,.005,-.021173,-.003733*
20,1,.005,-.021173,-.003733,-.0215,0.0,0.0*
1,1,.005,-.0215,0.0*
20,1,.005,-.0215,0.0,-.021173,.003733,0.0*
1,1,.005,-.021173,.003733*
20,1,.005,-.021173,.003733,-.020203,.007353,0.0*
1,1,.005,-.020203,.007353*
20,1,.005,-.020203,.007353,-.01862,.01075,0.0*
1,1,.005,-.01862,.01075*
20,1,.005,-.01862,.01075,-.01647,.01382,0.0*
1,1,.005,-.01647,.01382*
20,1,.005,-.01647,.01382,-.01382,.01647,0.0*
1,1,.005,-.01382,.01647*
20,1,.005,-.01382,.01647,-.01075,.01862,0.0*
1,1,.005,-.01075,.01862*
20,1,.005,-.01075,.01862,-.007353,.020203,0.0*
1,1,.005,-.007353,.020203*
20,1,.005,-.007353,.020203,-.003733,.021173,0.0*
1,1,.005,-.003733,.021173*
20,1,.005,-.003733,.021173,0.0,.0215,0.0*
1,1,.005,0.0,.0215*
20,1,.005,0.0,.0215,.003733,.021173,0.0*
1,1,.005,.003733,.021173*
20,1,.005,.003733,.021173,.007353,.020203,0.0*
1,1,.005,.007353,.020203*
20,1,.005,.007353,.020203,.01075,.01862,0.0*
1,1,.005,.01075,.01862*
20,1,.005,.01075,.01862,.01382,.01647,0.0*
1,1,.005,.01382,.01647*
20,1,.005,.01382,.01647,.01647,.01382,0.0*
1,1,.005,.01647,.01382*
20,1,.005,.01647,.01382,.01862,.01075,0.0*
1,1,.005,.01862,.01075*
20,1,.005,.01862,.01075,.020203,.007353,0.0*
1,1,.005,.020203,.007353*
20,1,.005,.020203,.007353,.021173,.003733,0.0*
1,1,.005,.021173,.003733*
20,1,.005,.021173,.003733,.0215,0.0,0.0*
1,1,.005,.0215,0.0*
1,1,.005,-.008959,-.01075*
20,1,.005,-.008959,-.01075,0.0,.01075,0.0*
1,1,.005,0.0,.01075*
20,1,.005,0.0,.01075,.008959,-.01075,0.0*
1,1,.005,.008959,-.01075*
1,1,.005,.005733,-.003225*
20,1,.005,.005733,-.003225,-.005734,-.003225,0.0*
1,1,.005,-.005734,-.003225*
%
%ADD20MACRO20*%
%AMMACRO11*
1,1,.005,.027,0.0*
20,1,.005,.027,0.0,.02659,-.004689,0.0*
1,1,.005,.02659,-.004689*
20,1,.005,.02659,-.004689,.025372,-.009235,0.0*
1,1,.005,.025372,-.009235*
20,1,.005,.025372,-.009235,.023383,-.0135,0.0*
1,1,.005,.023383,-.0135*
20,1,.005,.023383,-.0135,.020683,-.017355,0.0*
1,1,.005,.020683,-.017355*
20,1,.005,.020683,-.017355,.017355,-.020683,0.0*
1,1,.005,.017355,-.020683*
20,1,.005,.017355,-.020683,.0135,-.023383,0.0*
1,1,.005,.0135,-.023383*
20,1,.005,.0135,-.023383,.009235,-.025372,0.0*
1,1,.005,.009235,-.025372*
20,1,.005,.009235,-.025372,.004689,-.02659,0.0*
1,1,.005,.004689,-.02659*
20,1,.005,.004689,-.02659,0.0,-.027,0.0*
1,1,.005,0.0,-.027*
20,1,.005,0.0,-.027,-.004689,-.02659,0.0*
1,1,.005,-.004689,-.02659*
20,1,.005,-.004689,-.02659,-.009235,-.025372,0.0*
1,1,.005,-.009235,-.025372*
20,1,.005,-.009235,-.025372,-.0135,-.023383,0.0*
1,1,.005,-.0135,-.023383*
20,1,.005,-.0135,-.023383,-.017355,-.020683,0.0*
1,1,.005,-.017355,-.020683*
20,1,.005,-.017355,-.020683,-.020683,-.017355,0.0*
1,1,.005,-.020683,-.017355*
20,1,.005,-.020683,-.017355,-.023383,-.0135,0.0*
1,1,.005,-.023383,-.0135*
20,1,.005,-.023383,-.0135,-.025372,-.009235,0.0*
1,1,.005,-.025372,-.009235*
20,1,.005,-.025372,-.009235,-.02659,-.004689,0.0*
1,1,.005,-.02659,-.004689*
20,1,.005,-.02659,-.004689,-.027,0.0,0.0*
1,1,.005,-.027,0.0*
20,1,.005,-.027,0.0,-.02659,.004689,0.0*
1,1,.005,-.02659,.004689*
20,1,.005,-.02659,.004689,-.025372,.009235,0.0*
1,1,.005,-.025372,.009235*
20,1,.005,-.025372,.009235,-.023383,.0135,0.0*
1,1,.005,-.023383,.0135*
20,1,.005,-.023383,.0135,-.020683,.017355,0.0*
1,1,.005,-.020683,.017355*
20,1,.005,-.020683,.017355,-.017355,.020683,0.0*
1,1,.005,-.017355,.020683*
20,1,.005,-.017355,.020683,-.0135,.023383,0.0*
1,1,.005,-.0135,.023383*
20,1,.005,-.0135,.023383,-.009235,.025372,0.0*
1,1,.005,-.009235,.025372*
20,1,.005,-.009235,.025372,-.004689,.02659,0.0*
1,1,.005,-.004689,.02659*
20,1,.005,-.004689,.02659,0.0,.027,0.0*
1,1,.005,0.0,.027*
20,1,.005,0.0,.027,.004689,.02659,0.0*
1,1,.005,.004689,.02659*
20,1,.005,.004689,.02659,.009235,.025372,0.0*
1,1,.005,.009235,.025372*
20,1,.005,.009235,.025372,.0135,.023383,0.0*
1,1,.005,.0135,.023383*
20,1,.005,.0135,.023383,.017355,.020683,0.0*
1,1,.005,.017355,.020683*
20,1,.005,.017355,.020683,.020683,.017355,0.0*
1,1,.005,.020683,.017355*
20,1,.005,.020683,.017355,.023383,.0135,0.0*
1,1,.005,.023383,.0135*
20,1,.005,.023383,.0135,.025372,.009235,0.0*
1,1,.005,.025372,.009235*
20,1,.005,.025372,.009235,.02659,.004689,0.0*
1,1,.005,.02659,.004689*
20,1,.005,.02659,.004689,.027,0.0,0.0*
1,1,.005,.027,0.0*
1,1,.005,-.01125,-.0135*
20,1,.005,-.01125,-.0135,0.0,.0135,0.0*
1,1,.005,0.0,.0135*
20,1,.005,0.0,.0135,.01125,-.0135,0.0*
1,1,.005,.01125,-.0135*
1,1,.005,.0072,-.00405*
20,1,.005,.0072,-.00405,-.007201,-.00405,0.0*
1,1,.005,-.007201,-.00405*
%
%ADD11MACRO11*%
%AMMACRO14*
1,1,.005,.03,.03*
20,1,.005,.03,.03,.03,-.03,0.0*
1,1,.005,.03,-.03*
20,1,.005,.03,-.03,-.03,-.03,0.0*
1,1,.005,-.03,-.03*
20,1,.005,-.03,-.03,-.03,.03,0.0*
1,1,.005,-.03,.03*
20,1,.005,-.03,.03,.03,.03,0.0*
1,1,.005,.03,.03*
1,1,.005,-.0105,-.015*
20,1,.005,-.0105,-.015,-.0105,.015,0.0*
1,1,.005,-.0105,.015*
1,1,.005,.0105,.015*
20,1,.005,.0105,.015,.0105,-.015,0.0*
1,1,.005,.0105,-.015*
1,1,.005,.0105,0.0*
20,1,.005,.0105,0.0,-.0105,0.0,0.0*
1,1,.005,-.0105,0.0*
%
%ADD14MACRO14*%
%AMMACRO13*
1,1,.005,.027,.027*
20,1,.005,.027,.027,.027,-.027,0.0*
1,1,.005,.027,-.027*
20,1,.005,.027,-.027,-.027,-.027,0.0*
1,1,.005,-.027,-.027*
20,1,.005,-.027,-.027,-.027,.027,0.0*
1,1,.005,-.027,.027*
20,1,.005,-.027,.027,.027,.027,0.0*
1,1,.005,.027,.027*
1,1,.005,-.00945,-.0135*
20,1,.005,-.00945,-.0135,-.00945,.0135,0.0*
1,1,.005,-.00945,.0135*
1,1,.005,.00945,.0135*
20,1,.005,.00945,.0135,.00945,-.0135,0.0*
1,1,.005,.00945,-.0135*
1,1,.005,.00945,0.0*
20,1,.005,.00945,0.0,-.00945,0.0,0.0*
1,1,.005,-.00945,0.0*
%
%ADD13MACRO13*%
%AMMACRO19*
1,1,.005,.0275,0.0*
20,1,.005,.0275,0.0,.027082,-.004775,0.0*
1,1,.005,.027082,-.004775*
20,1,.005,.027082,-.004775,.025842,-.009406,0.0*
1,1,.005,.025842,-.009406*
20,1,.005,.025842,-.009406,.023816,-.01375,0.0*
1,1,.005,.023816,-.01375*
20,1,.005,.023816,-.01375,.021066,-.017677,0.0*
1,1,.005,.021066,-.017677*
20,1,.005,.021066,-.017677,.017677,-.021066,0.0*
1,1,.005,.017677,-.021066*
20,1,.005,.017677,-.021066,.01375,-.023816,0.0*
1,1,.005,.01375,-.023816*
20,1,.005,.01375,-.023816,.009406,-.025842,0.0*
1,1,.005,.009406,-.025842*
20,1,.005,.009406,-.025842,.004775,-.027082,0.0*
1,1,.005,.004775,-.027082*
20,1,.005,.004775,-.027082,0.0,-.0275,0.0*
1,1,.005,0.0,-.0275*
20,1,.005,0.0,-.0275,-.004775,-.027082,0.0*
1,1,.005,-.004775,-.027082*
20,1,.005,-.004775,-.027082,-.009406,-.025842,0.0*
1,1,.005,-.009406,-.025842*
20,1,.005,-.009406,-.025842,-.01375,-.023816,0.0*
1,1,.005,-.01375,-.023816*
20,1,.005,-.01375,-.023816,-.017677,-.021066,0.0*
1,1,.005,-.017677,-.021066*
20,1,.005,-.017677,-.021066,-.021066,-.017677,0.0*
1,1,.005,-.021066,-.017677*
20,1,.005,-.021066,-.017677,-.023816,-.01375,0.0*
1,1,.005,-.023816,-.01375*
20,1,.005,-.023816,-.01375,-.025842,-.009406,0.0*
1,1,.005,-.025842,-.009406*
20,1,.005,-.025842,-.009406,-.027082,-.004775,0.0*
1,1,.005,-.027082,-.004775*
20,1,.005,-.027082,-.004775,-.0275,0.0,0.0*
1,1,.005,-.0275,0.0*
20,1,.005,-.0275,0.0,-.027082,.004775,0.0*
1,1,.005,-.027082,.004775*
20,1,.005,-.027082,.004775,-.025842,.009406,0.0*
1,1,.005,-.025842,.009406*
20,1,.005,-.025842,.009406,-.023816,.01375,0.0*
1,1,.005,-.023816,.01375*
20,1,.005,-.023816,.01375,-.021066,.017677,0.0*
1,1,.005,-.021066,.017677*
20,1,.005,-.021066,.017677,-.017677,.021066,0.0*
1,1,.005,-.017677,.021066*
20,1,.005,-.017677,.021066,-.01375,.023816,0.0*
1,1,.005,-.01375,.023816*
20,1,.005,-.01375,.023816,-.009406,.025842,0.0*
1,1,.005,-.009406,.025842*
20,1,.005,-.009406,.025842,-.004775,.027082,0.0*
1,1,.005,-.004775,.027082*
20,1,.005,-.004775,.027082,0.0,.0275,0.0*
1,1,.005,0.0,.0275*
20,1,.005,0.0,.0275,.004775,.027082,0.0*
1,1,.005,.004775,.027082*
20,1,.005,.004775,.027082,.009406,.025842,0.0*
1,1,.005,.009406,.025842*
20,1,.005,.009406,.025842,.01375,.023816,0.0*
1,1,.005,.01375,.023816*
20,1,.005,.01375,.023816,.017677,.021066,0.0*
1,1,.005,.017677,.021066*
20,1,.005,.017677,.021066,.021066,.017677,0.0*
1,1,.005,.021066,.017677*
20,1,.005,.021066,.017677,.023816,.01375,0.0*
1,1,.005,.023816,.01375*
20,1,.005,.023816,.01375,.025842,.009406,0.0*
1,1,.005,.025842,.009406*
20,1,.005,.025842,.009406,.027082,.004775,0.0*
1,1,.005,.027082,.004775*
20,1,.005,.027082,.004775,.0275,0.0,0.0*
1,1,.005,.0275,0.0*
1,1,.005,-.011459,.01375*
20,1,.005,-.011459,.01375,0.0,-.01375,0.0*
1,1,.005,0.0,-.01375*
20,1,.005,0.0,-.01375,.011459,.01375,0.0*
1,1,.005,.011459,.01375*
%
%ADD19MACRO19*%
%AMMACRO10*
1,1,.005,.137796,0.0*
20,1,.005,.137796,0.0,.135702,-.023928,0.0*
1,1,.005,.135702,-.023928*
20,1,.005,.135702,-.023928,.129485,-.047129,0.0*
1,1,.005,.129485,-.047129*
20,1,.005,.129485,-.047129,.119334,-.068898,0.0*
1,1,.005,.119334,-.068898*
20,1,.005,.119334,-.068898,.105557,-.088573,0.0*
1,1,.005,.105557,-.088573*
20,1,.005,.105557,-.088573,.088573,-.105557,0.0*
1,1,.005,.088573,-.105557*
20,1,.005,.088573,-.105557,.068898,-.119334,0.0*
1,1,.005,.068898,-.119334*
20,1,.005,.068898,-.119334,.047129,-.129485,0.0*
1,1,.005,.047129,-.129485*
20,1,.005,.047129,-.129485,.023928,-.135702,0.0*
1,1,.005,.023928,-.135702*
20,1,.005,.023928,-.135702,0.0,-.137796,0.0*
1,1,.005,0.0,-.137796*
20,1,.005,0.0,-.137796,-.023928,-.135702,0.0*
1,1,.005,-.023928,-.135702*
20,1,.005,-.023928,-.135702,-.047129,-.129485,0.0*
1,1,.005,-.047129,-.129485*
20,1,.005,-.047129,-.129485,-.068898,-.119334,0.0*
1,1,.005,-.068898,-.119334*
20,1,.005,-.068898,-.119334,-.088573,-.105557,0.0*
1,1,.005,-.088573,-.105557*
20,1,.005,-.088573,-.105557,-.105557,-.088573,0.0*
1,1,.005,-.105557,-.088573*
20,1,.005,-.105557,-.088573,-.119334,-.068898,0.0*
1,1,.005,-.119334,-.068898*
20,1,.005,-.119334,-.068898,-.129485,-.047129,0.0*
1,1,.005,-.129485,-.047129*
20,1,.005,-.129485,-.047129,-.135702,-.023928,0.0*
1,1,.005,-.135702,-.023928*
20,1,.005,-.135702,-.023928,-.137796,0.0,0.0*
1,1,.005,-.137796,0.0*
20,1,.005,-.137796,0.0,-.135702,.023928,0.0*
1,1,.005,-.135702,.023928*
20,1,.005,-.135702,.023928,-.129485,.047129,0.0*
1,1,.005,-.129485,.047129*
20,1,.005,-.129485,.047129,-.119334,.068898,0.0*
1,1,.005,-.119334,.068898*
20,1,.005,-.119334,.068898,-.105557,.088573,0.0*
1,1,.005,-.105557,.088573*
20,1,.005,-.105557,.088573,-.088573,.105557,0.0*
1,1,.005,-.088573,.105557*
20,1,.005,-.088573,.105557,-.068898,.119334,0.0*
1,1,.005,-.068898,.119334*
20,1,.005,-.068898,.119334,-.047129,.129485,0.0*
1,1,.005,-.047129,.129485*
20,1,.005,-.047129,.129485,-.023928,.135702,0.0*
1,1,.005,-.023928,.135702*
20,1,.005,-.023928,.135702,0.0,.137796,0.0*
1,1,.005,0.0,.137796*
20,1,.005,0.0,.137796,.023928,.135702,0.0*
1,1,.005,.023928,.135702*
20,1,.005,.023928,.135702,.047129,.129485,0.0*
1,1,.005,.047129,.129485*
20,1,.005,.047129,.129485,.068898,.119334,0.0*
1,1,.005,.068898,.119334*
20,1,.005,.068898,.119334,.088573,.105557,0.0*
1,1,.005,.088573,.105557*
20,1,.005,.088573,.105557,.105557,.088573,0.0*
1,1,.005,.105557,.088573*
20,1,.005,.105557,.088573,.119334,.068898,0.0*
1,1,.005,.119334,.068898*
20,1,.005,.119334,.068898,.129485,.047129,0.0*
1,1,.005,.129485,.047129*
20,1,.005,.129485,.047129,.135702,.023928,0.0*
1,1,.005,.135702,.023928*
20,1,.005,.135702,.023928,.137796,0.0,0.0*
1,1,.005,.137796,0.0*
1,1,.005,-.057417,-.068897*
20,1,.005,-.057417,-.068897,-.000002,.068898,0.0*
1,1,.005,-.000002,.068898*
20,1,.005,-.000002,.068898,.057418,-.068897,0.0*
1,1,.005,.057418,-.068897*
1,1,.005,.036744,-.020671*
20,1,.005,.036744,-.020671,-.036747,-.020671,0.0*
1,1,.005,-.036747,-.020671*
%
%ADD10MACRO10*%
%AMMACRO18*
1,1,.005,-.031496,.01378*
20,1,.005,-.031496,.01378,.031496,.01378,0.0*
1,1,.005,.031496,.01378*
20,1,.005,.031496,.01378,.033889,.01357,0.0*
1,1,.005,.033889,.01357*
20,1,.005,.033889,.01357,.036209,.012948,0.0*
1,1,.005,.036209,.012948*
20,1,.005,.036209,.012948,.038386,.011933,0.0*
1,1,.005,.038386,.011933*
20,1,.005,.038386,.011933,.040353,.010556,0.0*
1,1,.005,.040353,.010556*
20,1,.005,.040353,.010556,.042052,.008857,0.0*
1,1,.005,.042052,.008857*
20,1,.005,.042052,.008857,.043429,.00689,0.0*
1,1,.005,.043429,.00689*
20,1,.005,.043429,.00689,.044444,.004713,0.0*
1,1,.005,.044444,.004713*
20,1,.005,.044444,.004713,.045066,.002393,0.0*
1,1,.005,.045066,.002393*
20,1,.005,.045066,.002393,.045275,0.0,0.0*
1,1,.005,.045275,0.0*
20,1,.005,.045275,0.0,.045066,-.002393,0.0*
1,1,.005,.045066,-.002393*
20,1,.005,.045066,-.002393,.044444,-.004713,0.0*
1,1,.005,.044444,-.004713*
20,1,.005,.044444,-.004713,.043429,-.00689,0.0*
1,1,.005,.043429,-.00689*
20,1,.005,.043429,-.00689,.042052,-.008857,0.0*
1,1,.005,.042052,-.008857*
20,1,.005,.042052,-.008857,.040353,-.010556,0.0*
1,1,.005,.040353,-.010556*
20,1,.005,.040353,-.010556,.038386,-.011933,0.0*
1,1,.005,.038386,-.011933*
20,1,.005,.038386,-.011933,.036209,-.012948,0.0*
1,1,.005,.036209,-.012948*
20,1,.005,.036209,-.012948,.033889,-.01357,0.0*
1,1,.005,.033889,-.01357*
20,1,.005,.033889,-.01357,.031496,-.01378,0.0*
1,1,.005,.031496,-.01378*
20,1,.005,.031496,-.01378,-.031496,-.01378,0.0*
1,1,.005,-.031496,-.01378*
20,1,.005,-.031496,-.01378,-.033889,-.01357,0.0*
1,1,.005,-.033889,-.01357*
20,1,.005,-.033889,-.01357,-.036209,-.012948,0.0*
1,1,.005,-.036209,-.012948*
20,1,.005,-.036209,-.012948,-.038386,-.011933,0.0*
1,1,.005,-.038386,-.011933*
20,1,.005,-.038386,-.011933,-.040353,-.010556,0.0*
1,1,.005,-.040353,-.010556*
20,1,.005,-.040353,-.010556,-.042052,-.008857,0.0*
1,1,.005,-.042052,-.008857*
20,1,.005,-.042052,-.008857,-.043429,-.00689,0.0*
1,1,.005,-.043429,-.00689*
20,1,.005,-.043429,-.00689,-.044444,-.004713,0.0*
1,1,.005,-.044444,-.004713*
20,1,.005,-.044444,-.004713,-.045066,-.002393,0.0*
1,1,.005,-.045066,-.002393*
20,1,.005,-.045066,-.002393,-.045275,0.0,0.0*
1,1,.005,-.045275,0.0*
20,1,.005,-.045275,0.0,-.045066,.002393,0.0*
1,1,.005,-.045066,.002393*
20,1,.005,-.045066,.002393,-.044444,.004713,0.0*
1,1,.005,-.044444,.004713*
20,1,.005,-.044444,.004713,-.043429,.00689,0.0*
1,1,.005,-.043429,.00689*
20,1,.005,-.043429,.00689,-.042052,.008857,0.0*
1,1,.005,-.042052,.008857*
20,1,.005,-.042052,.008857,-.040353,.010556,0.0*
1,1,.005,-.040353,.010556*
20,1,.005,-.040353,.010556,-.038386,.011933,0.0*
1,1,.005,-.038386,.011933*
20,1,.005,-.038386,.011933,-.036209,.012948,0.0*
1,1,.005,-.036209,.012948*
20,1,.005,-.036209,.012948,-.033889,.01357,0.0*
1,1,.005,-.033889,.01357*
20,1,.005,-.033889,.01357,-.031496,.01378,0.0*
1,1,.005,-.031496,.01378*
%
%ADD18MACRO18*%
%ADD21C,.005*%
G75*
%LPD*%
G75*
G54D10*
X23400Y-60100D03*
Y107900D03*
X23300Y148500D03*
Y348500D03*
X376500Y-60100D03*
Y107900D03*
X423300Y148500D03*
Y348500D03*
X564450Y4422D03*
G54D11*
X20163Y197067D03*
Y204941D03*
Y212815D03*
Y220689D03*
Y228563D03*
Y236437D03*
Y244311D03*
Y252185D03*
Y260059D03*
Y267933D03*
X28037Y212815D03*
Y204941D03*
Y236437D03*
Y228563D03*
Y220689D03*
Y252185D03*
Y244311D03*
Y267933D03*
Y260059D03*
X564450Y293792D03*
G54D20*
X404200Y197100D03*
X564450Y128437D03*
G54D21*
G01X5300Y-78100D02*
Y367500D01*
X441000D01*
Y-78100D01*
X5300D01*
G01X519500Y-98925D02*
Y437000D01*
X1003100D01*
Y-98925D01*
X519500D01*
G01Y-57587D02*
X1003100D01*
G01X519500Y-16248D02*
X1003100D01*
G01X519500Y25091D02*
X1003100D01*
G01X519500Y66429D02*
X1003100D01*
G01X519500Y107768D02*
X1003100D01*
G01X519500Y149107D02*
X1003100D01*
G01X519500Y190445D02*
X1003100D01*
G01X519500Y231784D02*
X1003100D01*
G01X519500Y273123D02*
X1003100D01*
G01X519500Y314461D02*
X1003100D01*
G01X519500Y355800D02*
X1003100D01*
G01X519500Y383900D02*
X1003100D01*
G01X519500Y412000D02*
X1003100D01*
G01X530505Y365150D02*
Y377650D01*
X536395D01*
G01X534225Y371608D02*
X530505D01*
G01X543990Y377650D02*
X547710D01*
G01X545850D02*
Y365150D01*
G01X543990D02*
X547710D01*
G01X559180Y371400D02*
X562280D01*
Y367650D01*
X561350Y366400D01*
X560265Y365567D01*
X558715Y365150D01*
X557165Y365567D01*
X556080Y366400D01*
X555150Y367650D01*
X554530Y369108D01*
X554220Y370775D01*
Y372233D01*
X554530Y373483D01*
X555150Y374942D01*
X556080Y376192D01*
X557010Y377025D01*
X558250Y377650D01*
X559335D01*
X560575Y377233D01*
X561505Y376400D01*
G01X567240Y377650D02*
Y368692D01*
X567860Y366816D01*
X569100Y365567D01*
X570650Y365150D01*
X572200Y365567D01*
X573440Y366816D01*
X574060Y368692D01*
Y377650D01*
G01X579950Y365150D02*
Y377650D01*
X583825D01*
X585065Y377025D01*
X585840Y376192D01*
X586150Y374525D01*
X585840Y372858D01*
X584910Y371817D01*
X583825Y371192D01*
X579950D01*
G01X583825D02*
X586150Y365150D01*
G01X598550D02*
X592350D01*
Y377650D01*
X598550D01*
G01X596070Y371608D02*
X592350D01*
G01X609400Y383900D02*
Y-98925D01*
G01X602890Y418250D02*
Y430750D01*
X605990D01*
X607230Y430125D01*
X608160Y429292D01*
X608935Y428042D01*
X609555Y426583D01*
X609710Y424500D01*
X609555Y422416D01*
X608935Y420958D01*
X608160Y419708D01*
X607230Y418875D01*
X605990Y418250D01*
X602890D01*
G01X615600D02*
Y430750D01*
X619475D01*
X620715Y430125D01*
X621490Y429292D01*
X621800Y427625D01*
X621490Y425958D01*
X620560Y424917D01*
X619475Y424292D01*
X615600D01*
G01X619475D02*
X621800Y418250D01*
G01X629240Y430750D02*
X632960D01*
G01X631100D02*
Y418250D01*
G01X629240D02*
X632960D01*
G01X640400Y430750D02*
Y418250D01*
X646600D01*
G01X652800Y430750D02*
Y418250D01*
X659000D01*
G01X684110Y429708D02*
X683180Y430333D01*
X682095Y430750D01*
X680855D01*
X679460Y430125D01*
X678375Y429083D01*
X677600Y427833D01*
X676980Y425750D01*
X676825Y423875D01*
X677135Y422000D01*
X677600Y420750D01*
X678530Y419500D01*
X679615Y418667D01*
X680700Y418250D01*
X681785D01*
X682870Y418667D01*
X683800Y419291D01*
X684575Y420125D01*
G01X689845Y418250D02*
Y430750D01*
G01X696355D02*
Y418250D01*
G01Y424500D02*
X689845D01*
G01X701625Y418250D02*
X705500Y430750D01*
X709375Y418250D01*
G01X707980Y422625D02*
X703020D01*
G01X714800Y418250D02*
Y430750D01*
X718675D01*
X719915Y430125D01*
X720690Y429292D01*
X721000Y427625D01*
X720690Y425958D01*
X719760Y424917D01*
X718675Y424292D01*
X714800D01*
G01X718675D02*
X721000Y418250D01*
G01X730300Y430750D02*
Y418250D01*
G01X726735Y430750D02*
X733865D01*
G01X742700Y417833D02*
X742390Y418042D01*
Y418458D01*
X742700Y418667D01*
X743010Y418458D01*
Y418042D01*
X742700Y417833D01*
G01Y423458D02*
X742390Y423667D01*
Y424083D01*
X742700Y424292D01*
X743010Y424083D01*
Y423667D01*
X742700Y423458D01*
G01X767500Y430750D02*
Y418250D01*
G01X763935Y430750D02*
X771065D01*
G01X779900Y418250D02*
X778660Y418458D01*
X777575Y419291D01*
X776645Y420542D01*
X776025Y422000D01*
X775715Y423667D01*
Y425333D01*
X776025Y427000D01*
X776645Y428458D01*
X777575Y429708D01*
X778660Y430542D01*
X779900Y430750D01*
X781140Y430542D01*
X782225Y429708D01*
X783155Y428458D01*
X783775Y427000D01*
X784085Y425333D01*
Y423667D01*
X783775Y422000D01*
X783155Y420542D01*
X782225Y419291D01*
X781140Y418458D01*
X779900Y418250D01*
G01X789200D02*
Y430750D01*
X792920D01*
X794160Y430125D01*
X795090Y428667D01*
X795400Y427000D01*
X795090Y425333D01*
X794315Y424083D01*
X792920Y423458D01*
X789200D01*
G01X817100Y430750D02*
Y418250D01*
G01X814930Y426583D02*
X819270D01*
G01X829500Y418250D02*
X828570Y418458D01*
X827640Y419291D01*
X827020Y420750D01*
X826710Y422416D01*
X827020Y424083D01*
X827640Y425542D01*
X828570Y426375D01*
X829500Y426583D01*
X830430Y426375D01*
X831360Y425542D01*
X831980Y424083D01*
X832135Y422416D01*
X831980Y420750D01*
X831360Y419291D01*
X830430Y418458D01*
X829500Y418250D01*
G01X855540Y424917D02*
X856160Y425542D01*
X856625Y426583D01*
X856935Y428042D01*
X856625Y429292D01*
X856005Y430125D01*
X854920Y430750D01*
X850735D01*
Y418250D01*
X855850D01*
X856935Y419083D01*
X857555Y420333D01*
X857865Y421792D01*
X857555Y423250D01*
X856625Y424500D01*
X855540Y424917D01*
X850735D01*
G01X866700Y418250D02*
X865460Y418458D01*
X864375Y419291D01*
X863445Y420542D01*
X862825Y422000D01*
X862515Y423667D01*
Y425333D01*
X862825Y427000D01*
X863445Y428458D01*
X864375Y429708D01*
X865460Y430542D01*
X866700Y430750D01*
X867940Y430542D01*
X869025Y429708D01*
X869955Y428458D01*
X870575Y427000D01*
X870885Y425333D01*
Y423667D01*
X870575Y422000D01*
X869955Y420542D01*
X869025Y419291D01*
X867940Y418458D01*
X866700Y418250D01*
G01X879100Y430750D02*
Y418250D01*
G01X875535Y430750D02*
X882665D01*
G01X891500D02*
Y418250D01*
G01X887935Y430750D02*
X895065D01*
G01X903900Y418250D02*
X902660Y418458D01*
X901575Y419291D01*
X900645Y420542D01*
X900025Y422000D01*
X899715Y423667D01*
Y425333D01*
X900025Y427000D01*
X900645Y428458D01*
X901575Y429708D01*
X902660Y430542D01*
X903900Y430750D01*
X905140Y430542D01*
X906225Y429708D01*
X907155Y428458D01*
X907775Y427000D01*
X908085Y425333D01*
Y423667D01*
X907775Y422000D01*
X907155Y420542D01*
X906225Y419291D01*
X905140Y418458D01*
X903900Y418250D01*
G01X912270D02*
Y430750D01*
X916300Y420333D01*
X920330Y430750D01*
Y418250D01*
G01X626915Y-83048D02*
X628000Y-84089D01*
X629240Y-84506D01*
X630480Y-84089D01*
X631565Y-82840D01*
X632340Y-80964D01*
X632650Y-79089D01*
Y-76798D01*
X632340Y-74923D01*
X631565Y-73256D01*
X630635Y-72422D01*
X629550Y-72006D01*
X628310Y-72422D01*
X627380Y-73256D01*
X626760Y-74506D01*
X626450Y-76173D01*
X626760Y-77631D01*
X627535Y-79089D01*
X628465Y-79923D01*
X629550Y-80131D01*
X630790Y-79714D01*
X631720Y-78673D01*
X632650Y-76798D01*
G01X641950Y-72006D02*
X640710Y-72422D01*
X639780Y-73464D01*
X639160Y-74714D01*
X638695Y-76381D01*
X638540Y-78256D01*
X638695Y-80131D01*
X639160Y-81798D01*
X639780Y-83048D01*
X640710Y-84089D01*
X641950Y-84506D01*
X643190Y-84089D01*
X644120Y-83048D01*
X644740Y-81798D01*
X645205Y-80131D01*
X645360Y-78256D01*
X645205Y-76381D01*
X644740Y-74714D01*
X644120Y-73464D01*
X643190Y-72422D01*
X641950Y-72006D01*
G01X654350Y-84922D02*
X654040Y-84714D01*
Y-84298D01*
X654350Y-84089D01*
X654660Y-84298D01*
Y-84714D01*
X654350Y-84922D01*
G01X663340Y-82631D02*
X664270Y-83673D01*
X665355Y-84298D01*
X666750Y-84506D01*
X668145Y-84089D01*
X669230Y-83256D01*
X670005Y-81798D01*
X670160Y-80131D01*
X669850Y-78464D01*
X669075Y-77422D01*
X667990Y-76589D01*
X666905Y-76381D01*
X665820Y-76589D01*
X664425Y-77422D01*
X664890Y-72006D01*
X669075D01*
G01X675740Y-82631D02*
X676670Y-83673D01*
X677755Y-84298D01*
X679150Y-84506D01*
X680545Y-84089D01*
X681630Y-83256D01*
X682405Y-81798D01*
X682560Y-80131D01*
X682250Y-78464D01*
X681475Y-77422D01*
X680390Y-76589D01*
X679305Y-76381D01*
X678220Y-76589D01*
X676825Y-77422D01*
X677290Y-72006D01*
X681475D01*
G01X691550Y-84506D02*
Y-72006D01*
X689690Y-74506D01*
G01Y-84506D02*
X693410D01*
G01X701625Y-76173D02*
X706275Y-84506D01*
G01Y-76173D02*
X701625Y-84506D01*
G01X713405Y-74089D02*
X714335Y-72839D01*
X715420Y-72214D01*
X716660Y-72006D01*
X718210Y-72422D01*
X719295Y-73464D01*
X719605Y-74714D01*
X719450Y-75964D01*
X718830Y-77006D01*
X715730Y-79089D01*
X714335Y-80548D01*
X713405Y-82631D01*
X713095Y-84506D01*
X719605D01*
G01X728440D02*
X728750Y-81798D01*
X729215Y-79506D01*
X729835Y-77422D01*
X730610Y-75131D01*
X731850Y-72006D01*
X725650D01*
G01X741150Y-84922D02*
X740840Y-84714D01*
Y-84298D01*
X741150Y-84089D01*
X741460Y-84298D01*
Y-84714D01*
X741150Y-84922D01*
G01X750140Y-82631D02*
X751070Y-83673D01*
X752155Y-84298D01*
X753550Y-84506D01*
X754945Y-84089D01*
X756030Y-83256D01*
X756805Y-81798D01*
X756960Y-80131D01*
X756650Y-78464D01*
X755875Y-77422D01*
X754790Y-76589D01*
X753705Y-76381D01*
X752620Y-76589D01*
X751225Y-77422D01*
X751690Y-72006D01*
X755875D01*
G01X762540Y-82631D02*
X763470Y-83673D01*
X764555Y-84298D01*
X765950Y-84506D01*
X767345Y-84089D01*
X768430Y-83256D01*
X769205Y-81798D01*
X769360Y-80131D01*
X769050Y-78464D01*
X768275Y-77422D01*
X767190Y-76589D01*
X766105Y-76381D01*
X765020Y-76589D01*
X763625Y-77422D01*
X764090Y-72006D01*
X768275D01*
G01X775715Y-83048D02*
X776800Y-84089D01*
X778040Y-84506D01*
X779280Y-84089D01*
X780365Y-82840D01*
X781140Y-80964D01*
X781450Y-79089D01*
Y-76798D01*
X781140Y-74923D01*
X780365Y-73256D01*
X779435Y-72422D01*
X778350Y-72006D01*
X777110Y-72422D01*
X776180Y-73256D01*
X775560Y-74506D01*
X775250Y-76173D01*
X775560Y-77631D01*
X776335Y-79089D01*
X777265Y-79923D01*
X778350Y-80131D01*
X779590Y-79714D01*
X780520Y-78673D01*
X781450Y-76798D01*
G01X633425Y393250D02*
X637300Y405750D01*
X641175Y393250D01*
G01X639780Y397625D02*
X634820D01*
G01X646600Y405750D02*
Y393250D01*
X652800D01*
G01X659000Y405750D02*
Y393250D01*
X665200D01*
G01X683490Y405750D02*
Y396792D01*
X684110Y394916D01*
X685350Y393667D01*
X686900Y393250D01*
X688450Y393667D01*
X689690Y394916D01*
X690310Y396792D01*
Y405750D01*
G01X695735Y393250D02*
Y405750D01*
X702865Y393250D01*
Y405750D01*
G01X709840D02*
X713560D01*
G01X711700D02*
Y393250D01*
G01X709840D02*
X713560D01*
G01X724100Y405750D02*
Y393250D01*
G01X720535Y405750D02*
X727665D01*
G01X733245Y394916D02*
X734485Y393875D01*
X735880Y393250D01*
X737120D01*
X738360Y393875D01*
X739290Y394916D01*
X739755Y396375D01*
X739445Y397833D01*
X738670Y399083D01*
X737275Y399917D01*
X735415Y400333D01*
X734330Y401166D01*
X733865Y402625D01*
X734175Y404083D01*
X734950Y405125D01*
X736035Y405750D01*
X737120D01*
X738205Y405333D01*
X739135Y404292D01*
G01X757425Y393250D02*
X761300Y405750D01*
X765175Y393250D01*
G01X763780Y397625D02*
X758820D01*
G01X770600Y393250D02*
Y405750D01*
X774475D01*
X775715Y405125D01*
X776490Y404292D01*
X776800Y402625D01*
X776490Y400958D01*
X775560Y399917D01*
X774475Y399292D01*
X770600D01*
G01X774475D02*
X776800Y393250D01*
G01X789200D02*
X783000D01*
Y405750D01*
X789200D01*
G01X786720Y399708D02*
X783000D01*
G01X809040Y405750D02*
X812760D01*
G01X810900D02*
Y393250D01*
G01X809040D02*
X812760D01*
G01X819735D02*
Y405750D01*
X826865Y393250D01*
Y405750D01*
G01X844070Y393250D02*
Y405750D01*
X848100Y395333D01*
X852130Y405750D01*
Y393250D01*
G01X858640Y405750D02*
X862360D01*
G01X860500D02*
Y393250D01*
G01X858640D02*
X862360D01*
G01X869800Y405750D02*
Y393250D01*
X876000D01*
G01X882045Y394916D02*
X883285Y393875D01*
X884680Y393250D01*
X885920D01*
X887160Y393875D01*
X888090Y394916D01*
X888555Y396375D01*
X888245Y397833D01*
X887470Y399083D01*
X886075Y399917D01*
X884215Y400333D01*
X883130Y401166D01*
X882665Y402625D01*
X882975Y404083D01*
X883750Y405125D01*
X884835Y405750D01*
X885920D01*
X887005Y405333D01*
X887935Y404292D01*
G01X666750Y-1828D02*
Y10672D01*
X664890Y8172D01*
G01Y-1828D02*
X668610D01*
G01X678840D02*
X679150Y880D01*
X679615Y3171D01*
X680235Y5255D01*
X681010Y7546D01*
X682250Y10672D01*
X676050D01*
G01X691240Y-1828D02*
X691550Y880D01*
X692015Y3171D01*
X692635Y5255D01*
X693410Y7546D01*
X694650Y10672D01*
X688450D01*
G01X703950Y-2245D02*
X703640Y-2037D01*
Y-1620D01*
X703950Y-1412D01*
X704260Y-1620D01*
Y-2037D01*
X703950Y-2245D01*
G01X716350Y-1828D02*
Y10672D01*
X714490Y8172D01*
G01Y-1828D02*
X718210D01*
G01X725805Y3380D02*
X726890Y4838D01*
X727820Y5671D01*
X729060Y6088D01*
X730145Y5671D01*
X730920Y4838D01*
X731540Y3588D01*
X731695Y2130D01*
X731540Y880D01*
X730920Y-370D01*
X729990Y-1412D01*
X728905Y-1828D01*
X727665Y-1412D01*
X726580Y-162D01*
X725960Y1713D01*
X725805Y3796D01*
X726115Y6505D01*
X726580Y7963D01*
X727355Y9421D01*
X728440Y10463D01*
X729525Y10672D01*
X730610Y10255D01*
X731385Y9213D01*
G01X737740Y46D02*
X738670Y-995D01*
X739755Y-1620D01*
X741150Y-1828D01*
X742545Y-1412D01*
X743630Y-579D01*
X744405Y880D01*
X744560Y2546D01*
X744250Y4213D01*
X743475Y5255D01*
X742390Y6088D01*
X741305Y6296D01*
X740220Y6088D01*
X738825Y5255D01*
X739290Y10672D01*
X743475D01*
G01X681940Y-41293D02*
X682870Y-42334D01*
X683955Y-42959D01*
X685350Y-43167D01*
X686745Y-42751D01*
X687830Y-41918D01*
X688605Y-40459D01*
X688760Y-38792D01*
X688450Y-37126D01*
X687675Y-36084D01*
X686590Y-35251D01*
X685505Y-35042D01*
X684420Y-35251D01*
X683025Y-36084D01*
X683490Y-30667D01*
X687675D01*
G01X694340Y-41293D02*
X695270Y-42334D01*
X696355Y-42959D01*
X697750Y-43167D01*
X699145Y-42751D01*
X700230Y-41918D01*
X701005Y-40459D01*
X701160Y-38792D01*
X700850Y-37126D01*
X700075Y-36084D01*
X698990Y-35251D01*
X697905Y-35042D01*
X696820Y-35251D01*
X695425Y-36084D01*
X695890Y-30667D01*
X700075D01*
G01X710150Y-43584D02*
X709840Y-43376D01*
Y-42959D01*
X710150Y-42751D01*
X710460Y-42959D01*
Y-43376D01*
X710150Y-43584D01*
G01X722550Y-30667D02*
X721310Y-31084D01*
X720380Y-32126D01*
X719760Y-33375D01*
X719295Y-35042D01*
X719140Y-36917D01*
X719295Y-38792D01*
X719760Y-40459D01*
X720380Y-41709D01*
X721310Y-42751D01*
X722550Y-43167D01*
X723790Y-42751D01*
X724720Y-41709D01*
X725340Y-40459D01*
X725805Y-38792D01*
X725960Y-36917D01*
X725805Y-35042D01*
X725340Y-33375D01*
X724720Y-32126D01*
X723790Y-31084D01*
X722550Y-30667D01*
G01X682405Y44718D02*
X683490Y46177D01*
X684420Y47010D01*
X685660Y47427D01*
X686745Y47010D01*
X687520Y46177D01*
X688140Y44927D01*
X688295Y43468D01*
X688140Y42218D01*
X687520Y40968D01*
X686590Y39927D01*
X685505Y39510D01*
X684265Y39927D01*
X683180Y41176D01*
X682560Y43052D01*
X682405Y45135D01*
X682715Y47843D01*
X683180Y49302D01*
X683955Y50760D01*
X685040Y51802D01*
X686125Y52010D01*
X687210Y51593D01*
X687985Y50552D01*
G01X697750Y52010D02*
X696510Y51593D01*
X695580Y50552D01*
X694960Y49302D01*
X694495Y47635D01*
X694340Y45760D01*
X694495Y43885D01*
X694960Y42218D01*
X695580Y40968D01*
X696510Y39927D01*
X697750Y39510D01*
X698990Y39927D01*
X699920Y40968D01*
X700540Y42218D01*
X701005Y43885D01*
X701160Y45760D01*
X701005Y47635D01*
X700540Y49302D01*
X699920Y50552D01*
X698990Y51593D01*
X697750Y52010D01*
G01X710150Y39094D02*
X709840Y39302D01*
Y39718D01*
X710150Y39927D01*
X710460Y39718D01*
Y39302D01*
X710150Y39094D01*
G01X722550Y52010D02*
X721310Y51593D01*
X720380Y50552D01*
X719760Y49302D01*
X719295Y47635D01*
X719140Y45760D01*
X719295Y43885D01*
X719760Y42218D01*
X720380Y40968D01*
X721310Y39927D01*
X722550Y39510D01*
X723790Y39927D01*
X724720Y40968D01*
X725340Y42218D01*
X725805Y43885D01*
X725960Y45760D01*
X725805Y47635D01*
X725340Y49302D01*
X724720Y50552D01*
X723790Y51593D01*
X722550Y52010D01*
G01X687210Y80849D02*
Y93349D01*
X681475Y84390D01*
X689225D01*
G01X697440Y80849D02*
X697750Y83557D01*
X698215Y85848D01*
X698835Y87932D01*
X699610Y90224D01*
X700850Y93349D01*
X694650D01*
G01X710150Y80432D02*
X709840Y80640D01*
Y81057D01*
X710150Y81265D01*
X710460Y81057D01*
Y80640D01*
X710150Y80432D01*
G01X722550Y93349D02*
X721310Y92932D01*
X720380Y91890D01*
X719760Y90641D01*
X719295Y88974D01*
X719140Y87099D01*
X719295Y85224D01*
X719760Y83557D01*
X720380Y82307D01*
X721310Y81265D01*
X722550Y80849D01*
X723790Y81265D01*
X724720Y82307D01*
X725340Y83557D01*
X725805Y85224D01*
X725960Y87099D01*
X725805Y88974D01*
X725340Y90641D01*
X724720Y91890D01*
X723790Y92932D01*
X722550Y93349D01*
G01X687210Y122187D02*
Y134687D01*
X681475Y125729D01*
X689225D01*
G01X694340Y124687D02*
X695270Y123229D01*
X696510Y122396D01*
X697905Y122187D01*
X699145Y122396D01*
X700385Y123437D01*
X701160Y124687D01*
X701315Y125937D01*
X701005Y127395D01*
X699920Y128437D01*
X698835Y128854D01*
X697440D01*
G01X698835D02*
X699765Y129479D01*
X700540Y130520D01*
X700850Y131771D01*
X700540Y133021D01*
X699765Y134062D01*
X698370Y134687D01*
X696975Y134479D01*
X695580Y133646D01*
G01X710150Y121771D02*
X709840Y121979D01*
Y122396D01*
X710150Y122604D01*
X710460Y122396D01*
Y121979D01*
X710150Y121771D01*
G01X722550Y134687D02*
X721310Y134271D01*
X720380Y133229D01*
X719760Y131979D01*
X719295Y130312D01*
X719140Y128437D01*
X719295Y126562D01*
X719760Y124896D01*
X720380Y123645D01*
X721310Y122604D01*
X722550Y122187D01*
X723790Y122604D01*
X724720Y123645D01*
X725340Y124896D01*
X725805Y126562D01*
X725960Y128437D01*
X725805Y130312D01*
X725340Y131979D01*
X724720Y133229D01*
X723790Y134271D01*
X722550Y134687D01*
G01X681940Y166026D02*
X682870Y164568D01*
X684110Y163734D01*
X685505Y163526D01*
X686745Y163734D01*
X687985Y164776D01*
X688760Y166026D01*
X688915Y167276D01*
X688605Y168734D01*
X687520Y169776D01*
X686435Y170193D01*
X685040D01*
G01X686435D02*
X687365Y170818D01*
X688140Y171859D01*
X688450Y173109D01*
X688140Y174359D01*
X687365Y175401D01*
X685970Y176026D01*
X684575Y175818D01*
X683180Y174984D01*
G01X694340Y165401D02*
X695270Y164359D01*
X696355Y163734D01*
X697750Y163526D01*
X699145Y163943D01*
X700230Y164776D01*
X701005Y166234D01*
X701160Y167901D01*
X700850Y169568D01*
X700075Y170609D01*
X698990Y171443D01*
X697905Y171651D01*
X696820Y171443D01*
X695425Y170609D01*
X695890Y176026D01*
X700075D01*
G01X710150Y163110D02*
X709840Y163318D01*
Y163734D01*
X710150Y163943D01*
X710460Y163734D01*
Y163318D01*
X710150Y163110D01*
G01X722550Y176026D02*
X721310Y175610D01*
X720380Y174568D01*
X719760Y173318D01*
X719295Y171651D01*
X719140Y169776D01*
X719295Y167901D01*
X719760Y166234D01*
X720380Y164984D01*
X721310Y163943D01*
X722550Y163526D01*
X723790Y163943D01*
X724720Y164984D01*
X725340Y166234D01*
X725805Y167901D01*
X725960Y169776D01*
X725805Y171651D01*
X725340Y173318D01*
X724720Y174568D01*
X723790Y175610D01*
X722550Y176026D01*
G01X681940Y207364D02*
X682870Y205906D01*
X684110Y205073D01*
X685505Y204865D01*
X686745Y205073D01*
X687985Y206114D01*
X688760Y207364D01*
X688915Y208615D01*
X688605Y210073D01*
X687520Y211114D01*
X686435Y211532D01*
X685040D01*
G01X686435D02*
X687365Y212156D01*
X688140Y213198D01*
X688450Y214448D01*
X688140Y215698D01*
X687365Y216740D01*
X685970Y217365D01*
X684575Y217156D01*
X683180Y216323D01*
G01X694340Y206739D02*
X695270Y205698D01*
X696355Y205073D01*
X697750Y204865D01*
X699145Y205281D01*
X700230Y206114D01*
X701005Y207573D01*
X701160Y209240D01*
X700850Y210906D01*
X700075Y211948D01*
X698990Y212781D01*
X697905Y212990D01*
X696820Y212781D01*
X695425Y211948D01*
X695890Y217365D01*
X700075D01*
G01X710150Y204448D02*
X709840Y204656D01*
Y205073D01*
X710150Y205281D01*
X710460Y205073D01*
Y204656D01*
X710150Y204448D01*
G01X722550Y217365D02*
X721310Y216948D01*
X720380Y215906D01*
X719760Y214657D01*
X719295Y212990D01*
X719140Y211114D01*
X719295Y209240D01*
X719760Y207573D01*
X720380Y206323D01*
X721310Y205281D01*
X722550Y204865D01*
X723790Y205281D01*
X724720Y206323D01*
X725340Y207573D01*
X725805Y209240D01*
X725960Y211114D01*
X725805Y212990D01*
X725340Y214657D01*
X724720Y215906D01*
X723790Y216948D01*
X722550Y217365D01*
G01X681940Y248703D02*
X682870Y247245D01*
X684110Y246412D01*
X685505Y246203D01*
X686745Y246412D01*
X687985Y247453D01*
X688760Y248703D01*
X688915Y249953D01*
X688605Y251411D01*
X687520Y252453D01*
X686435Y252870D01*
X685040D01*
G01X686435D02*
X687365Y253495D01*
X688140Y254536D01*
X688450Y255787D01*
X688140Y257037D01*
X687365Y258078D01*
X685970Y258703D01*
X684575Y258495D01*
X683180Y257662D01*
G01X694340Y248078D02*
X695270Y247037D01*
X696355Y246412D01*
X697750Y246203D01*
X699145Y246620D01*
X700230Y247453D01*
X701005Y248912D01*
X701160Y250578D01*
X700850Y252245D01*
X700075Y253287D01*
X698990Y254120D01*
X697905Y254328D01*
X696820Y254120D01*
X695425Y253287D01*
X695890Y258703D01*
X700075D01*
G01X710150Y245787D02*
X709840Y245995D01*
Y246412D01*
X710150Y246620D01*
X710460Y246412D01*
Y245995D01*
X710150Y245787D01*
G01X722550Y258703D02*
X721310Y258287D01*
X720380Y257245D01*
X719760Y255995D01*
X719295Y254328D01*
X719140Y252453D01*
X719295Y250578D01*
X719760Y248912D01*
X720380Y247661D01*
X721310Y246620D01*
X722550Y246203D01*
X723790Y246620D01*
X724720Y247661D01*
X725340Y248912D01*
X725805Y250578D01*
X725960Y252453D01*
X725805Y254328D01*
X725340Y255995D01*
X724720Y257245D01*
X723790Y258287D01*
X722550Y258703D01*
G01X681940Y290042D02*
X682870Y288583D01*
X684110Y287750D01*
X685505Y287542D01*
X686745Y287750D01*
X687985Y288792D01*
X688760Y290042D01*
X688915Y291292D01*
X688605Y292750D01*
X687520Y293792D01*
X686435Y294209D01*
X685040D01*
G01X686435D02*
X687365Y294834D01*
X688140Y295875D01*
X688450Y297125D01*
X688140Y298375D01*
X687365Y299417D01*
X685970Y300042D01*
X684575Y299834D01*
X683180Y299000D01*
G01X694340Y289417D02*
X695270Y288375D01*
X696355Y287750D01*
X697750Y287542D01*
X699145Y287959D01*
X700230Y288792D01*
X701005Y290250D01*
X701160Y291917D01*
X700850Y293584D01*
X700075Y294625D01*
X698990Y295458D01*
X697905Y295667D01*
X696820Y295458D01*
X695425Y294625D01*
X695890Y300042D01*
X700075D01*
G01X710150Y287125D02*
X709840Y287334D01*
Y287750D01*
X710150Y287959D01*
X710460Y287750D01*
Y287334D01*
X710150Y287125D01*
G01X722550Y300042D02*
X721310Y299625D01*
X720380Y298584D01*
X719760Y297334D01*
X719295Y295667D01*
X719140Y293792D01*
X719295Y291917D01*
X719760Y290250D01*
X720380Y289000D01*
X721310Y287959D01*
X722550Y287542D01*
X723790Y287959D01*
X724720Y289000D01*
X725340Y290250D01*
X725805Y291917D01*
X725960Y293792D01*
X725805Y295667D01*
X725340Y297334D01*
X724720Y298584D01*
X723790Y299625D01*
X722550Y300042D01*
G01X685350Y328881D02*
Y341381D01*
X683490Y338881D01*
G01Y328881D02*
X687210D01*
G01X699610D02*
Y341381D01*
X693875Y332422D01*
X701625D01*
G01X710150Y328464D02*
X709840Y328672D01*
Y329089D01*
X710150Y329297D01*
X710460Y329089D01*
Y328672D01*
X710150Y328464D01*
G01X722550Y341381D02*
X721310Y340964D01*
X720380Y339922D01*
X719760Y338673D01*
X719295Y337006D01*
X719140Y335130D01*
X719295Y333256D01*
X719760Y331589D01*
X720380Y330339D01*
X721310Y329297D01*
X722550Y328881D01*
X723790Y329297D01*
X724720Y330339D01*
X725340Y331589D01*
X725805Y333256D01*
X725960Y335130D01*
X725805Y337006D01*
X725340Y338673D01*
X724720Y339922D01*
X723790Y340964D01*
X722550Y341381D01*
G01X682095Y366816D02*
X683335Y365775D01*
X684730Y365150D01*
X685970D01*
X687210Y365775D01*
X688140Y366816D01*
X688605Y368275D01*
X688295Y369733D01*
X687520Y370983D01*
X686125Y371817D01*
X684265Y372233D01*
X683180Y373066D01*
X682715Y374525D01*
X683025Y375983D01*
X683800Y377025D01*
X684885Y377650D01*
X685970D01*
X687055Y377233D01*
X687985Y376192D01*
G01X695890Y377650D02*
X699610D01*
G01X697750D02*
Y365150D01*
G01X695890D02*
X699610D01*
G01X707205Y377650D02*
X713095D01*
X707205Y365150D01*
X713095D01*
G01X725650D02*
X719450D01*
Y377650D01*
X725650D01*
G01X723170Y371608D02*
X719450D01*
G01X798500Y383900D02*
Y-98925D01*
G01X802685Y-43167D02*
Y-30667D01*
X809815Y-43167D01*
Y-30667D01*
G01X818650Y-43167D02*
X817410Y-42959D01*
X816325Y-42126D01*
X815395Y-40876D01*
X814775Y-39417D01*
X814465Y-37750D01*
Y-36084D01*
X814775Y-34417D01*
X815395Y-32959D01*
X816325Y-31709D01*
X817410Y-30876D01*
X818650Y-30667D01*
X819890Y-30876D01*
X820975Y-31709D01*
X821905Y-32959D01*
X822525Y-34417D01*
X822835Y-36084D01*
Y-37750D01*
X822525Y-39417D01*
X821905Y-40876D01*
X820975Y-42126D01*
X819890Y-42959D01*
X818650Y-43167D01*
G01X827485D02*
Y-30667D01*
X834615Y-43167D01*
Y-30667D01*
G01X841435Y-39001D02*
X845465D01*
G01X852750Y-43167D02*
Y-30667D01*
X856470D01*
X857710Y-31292D01*
X858640Y-32750D01*
X858950Y-34417D01*
X858640Y-36084D01*
X857865Y-37334D01*
X856470Y-37959D01*
X852750D01*
G01X865150Y-30667D02*
Y-43167D01*
X871350D01*
G01X876775D02*
X880650Y-30667D01*
X884525Y-43167D01*
G01X883130Y-38792D02*
X878170D01*
G01X893050Y-30667D02*
Y-43167D01*
G01X889485Y-30667D02*
X896615D01*
G01X908550Y-43167D02*
X902350D01*
Y-30667D01*
X908550D01*
G01X906070Y-36709D02*
X902350D01*
G01X914440Y-43167D02*
Y-30667D01*
X917540D01*
X918780Y-31292D01*
X919710Y-32126D01*
X920485Y-33375D01*
X921105Y-34834D01*
X921260Y-36917D01*
X921105Y-39001D01*
X920485Y-40459D01*
X919710Y-41709D01*
X918780Y-42542D01*
X917540Y-43167D01*
X914440D01*
G01X827950Y-84506D02*
Y-72006D01*
X831670D01*
X832910Y-72631D01*
X833840Y-74089D01*
X834150Y-75756D01*
X833840Y-77422D01*
X833065Y-78673D01*
X831670Y-79298D01*
X827950D01*
G01X840350Y-72006D02*
Y-84506D01*
X846550D01*
G01X851975D02*
X855850Y-72006D01*
X859725Y-84506D01*
G01X858330Y-80131D02*
X853370D01*
G01X868250Y-72006D02*
Y-84506D01*
G01X864685Y-72006D02*
X871815D01*
G01X883750Y-84506D02*
X877550D01*
Y-72006D01*
X883750D01*
G01X881270Y-78047D02*
X877550D01*
G01X889640Y-84506D02*
Y-72006D01*
X892740D01*
X893980Y-72631D01*
X894910Y-73464D01*
X895685Y-74714D01*
X896305Y-76173D01*
X896460Y-78256D01*
X896305Y-80339D01*
X895685Y-81798D01*
X894910Y-83048D01*
X893980Y-83881D01*
X892740Y-84506D01*
X889640D01*
G01X827950Y-1828D02*
Y10672D01*
X831670D01*
X832910Y10046D01*
X833840Y8588D01*
X834150Y6922D01*
X833840Y5255D01*
X833065Y4005D01*
X831670Y3380D01*
X827950D01*
G01X840350Y10672D02*
Y-1828D01*
X846550D01*
G01X851975D02*
X855850Y10672D01*
X859725Y-1828D01*
G01X858330Y2546D02*
X853370D01*
G01X868250Y10672D02*
Y-1828D01*
G01X864685Y10672D02*
X871815D01*
G01X883750Y-1828D02*
X877550D01*
Y10672D01*
X883750D01*
G01X881270Y4630D02*
X877550D01*
G01X889640Y-1828D02*
Y10672D01*
X892740D01*
X893980Y10046D01*
X894910Y9213D01*
X895685Y7963D01*
X896305Y6505D01*
X896460Y4421D01*
X896305Y2338D01*
X895685Y880D01*
X894910Y-370D01*
X893980Y-1204D01*
X892740Y-1828D01*
X889640D01*
G01X827950Y39510D02*
Y52010D01*
X831670D01*
X832910Y51385D01*
X833840Y49927D01*
X834150Y48260D01*
X833840Y46593D01*
X833065Y45343D01*
X831670Y44718D01*
X827950D01*
G01X840350Y52010D02*
Y39510D01*
X846550D01*
G01X851975D02*
X855850Y52010D01*
X859725Y39510D01*
G01X858330Y43885D02*
X853370D01*
G01X868250Y52010D02*
Y39510D01*
G01X864685Y52010D02*
X871815D01*
G01X883750Y39510D02*
X877550D01*
Y52010D01*
X883750D01*
G01X881270Y45969D02*
X877550D01*
G01X889640Y39510D02*
Y52010D01*
X892740D01*
X893980Y51385D01*
X894910Y50552D01*
X895685Y49302D01*
X896305Y47843D01*
X896460Y45760D01*
X896305Y43677D01*
X895685Y42218D01*
X894910Y40968D01*
X893980Y40135D01*
X892740Y39510D01*
X889640D01*
G01X827950Y80849D02*
Y93349D01*
X831670D01*
X832910Y92724D01*
X833840Y91266D01*
X834150Y89599D01*
X833840Y87932D01*
X833065Y86682D01*
X831670Y86057D01*
X827950D01*
G01X840350Y93349D02*
Y80849D01*
X846550D01*
G01X851975D02*
X855850Y93349D01*
X859725Y80849D01*
G01X858330Y85224D02*
X853370D01*
G01X868250Y93349D02*
Y80849D01*
G01X864685Y93349D02*
X871815D01*
G01X883750Y80849D02*
X877550D01*
Y93349D01*
X883750D01*
G01X881270Y87307D02*
X877550D01*
G01X889640Y80849D02*
Y93349D01*
X892740D01*
X893980Y92724D01*
X894910Y91890D01*
X895685Y90641D01*
X896305Y89182D01*
X896460Y87099D01*
X896305Y85015D01*
X895685Y83557D01*
X894910Y82307D01*
X893980Y81474D01*
X892740Y80849D01*
X889640D01*
G01X827950Y122187D02*
Y134687D01*
X831670D01*
X832910Y134062D01*
X833840Y132604D01*
X834150Y130937D01*
X833840Y129271D01*
X833065Y128021D01*
X831670Y127395D01*
X827950D01*
G01X840350Y134687D02*
Y122187D01*
X846550D01*
G01X851975D02*
X855850Y134687D01*
X859725Y122187D01*
G01X858330Y126562D02*
X853370D01*
G01X868250Y134687D02*
Y122187D01*
G01X864685Y134687D02*
X871815D01*
G01X883750Y122187D02*
X877550D01*
Y134687D01*
X883750D01*
G01X881270Y128646D02*
X877550D01*
G01X889640Y122187D02*
Y134687D01*
X892740D01*
X893980Y134062D01*
X894910Y133229D01*
X895685Y131979D01*
X896305Y130520D01*
X896460Y128437D01*
X896305Y126354D01*
X895685Y124896D01*
X894910Y123645D01*
X893980Y122812D01*
X892740Y122187D01*
X889640D01*
G01X827950Y163526D02*
Y176026D01*
X831670D01*
X832910Y175401D01*
X833840Y173943D01*
X834150Y172276D01*
X833840Y170609D01*
X833065Y169359D01*
X831670Y168734D01*
X827950D01*
G01X840350Y176026D02*
Y163526D01*
X846550D01*
G01X851975D02*
X855850Y176026D01*
X859725Y163526D01*
G01X858330Y167901D02*
X853370D01*
G01X868250Y176026D02*
Y163526D01*
G01X864685Y176026D02*
X871815D01*
G01X883750Y163526D02*
X877550D01*
Y176026D01*
X883750D01*
G01X881270Y169985D02*
X877550D01*
G01X889640Y163526D02*
Y176026D01*
X892740D01*
X893980Y175401D01*
X894910Y174568D01*
X895685Y173318D01*
X896305Y171859D01*
X896460Y169776D01*
X896305Y167693D01*
X895685Y166234D01*
X894910Y164984D01*
X893980Y164151D01*
X892740Y163526D01*
X889640D01*
G01X827950Y204865D02*
Y217365D01*
X831670D01*
X832910Y216740D01*
X833840Y215281D01*
X834150Y213615D01*
X833840Y211948D01*
X833065Y210698D01*
X831670Y210073D01*
X827950D01*
G01X840350Y217365D02*
Y204865D01*
X846550D01*
G01X851975D02*
X855850Y217365D01*
X859725Y204865D01*
G01X858330Y209240D02*
X853370D01*
G01X868250Y217365D02*
Y204865D01*
G01X864685Y217365D02*
X871815D01*
G01X883750Y204865D02*
X877550D01*
Y217365D01*
X883750D01*
G01X881270Y211323D02*
X877550D01*
G01X889640Y204865D02*
Y217365D01*
X892740D01*
X893980Y216740D01*
X894910Y215906D01*
X895685Y214657D01*
X896305Y213198D01*
X896460Y211114D01*
X896305Y209031D01*
X895685Y207573D01*
X894910Y206323D01*
X893980Y205490D01*
X892740Y204865D01*
X889640D01*
G01X827950Y246203D02*
Y258703D01*
X831670D01*
X832910Y258078D01*
X833840Y256620D01*
X834150Y254953D01*
X833840Y253287D01*
X833065Y252037D01*
X831670Y251411D01*
X827950D01*
G01X840350Y258703D02*
Y246203D01*
X846550D01*
G01X851975D02*
X855850Y258703D01*
X859725Y246203D01*
G01X858330Y250578D02*
X853370D01*
G01X868250Y258703D02*
Y246203D01*
G01X864685Y258703D02*
X871815D01*
G01X883750Y246203D02*
X877550D01*
Y258703D01*
X883750D01*
G01X881270Y252662D02*
X877550D01*
G01X889640Y246203D02*
Y258703D01*
X892740D01*
X893980Y258078D01*
X894910Y257245D01*
X895685Y255995D01*
X896305Y254536D01*
X896460Y252453D01*
X896305Y250370D01*
X895685Y248912D01*
X894910Y247661D01*
X893980Y246828D01*
X892740Y246203D01*
X889640D01*
G01X827950Y287542D02*
Y300042D01*
X831670D01*
X832910Y299417D01*
X833840Y297959D01*
X834150Y296292D01*
X833840Y294625D01*
X833065Y293375D01*
X831670Y292750D01*
X827950D01*
G01X840350Y300042D02*
Y287542D01*
X846550D01*
G01X851975D02*
X855850Y300042D01*
X859725Y287542D01*
G01X858330Y291917D02*
X853370D01*
G01X868250Y300042D02*
Y287542D01*
G01X864685Y300042D02*
X871815D01*
G01X883750Y287542D02*
X877550D01*
Y300042D01*
X883750D01*
G01X881270Y294000D02*
X877550D01*
G01X889640Y287542D02*
Y300042D01*
X892740D01*
X893980Y299417D01*
X894910Y298584D01*
X895685Y297334D01*
X896305Y295875D01*
X896460Y293792D01*
X896305Y291708D01*
X895685Y290250D01*
X894910Y289000D01*
X893980Y288167D01*
X892740Y287542D01*
X889640D01*
G01X827950Y328881D02*
Y341381D01*
X831670D01*
X832910Y340756D01*
X833840Y339297D01*
X834150Y337631D01*
X833840Y335964D01*
X833065Y334714D01*
X831670Y334089D01*
X827950D01*
G01X840350Y341381D02*
Y328881D01*
X846550D01*
G01X851975D02*
X855850Y341381D01*
X859725Y328881D01*
G01X858330Y333256D02*
X853370D01*
G01X868250Y341381D02*
Y328881D01*
G01X864685Y341381D02*
X871815D01*
G01X883750Y328881D02*
X877550D01*
Y341381D01*
X883750D01*
G01X881270Y335339D02*
X877550D01*
G01X889640Y328881D02*
Y341381D01*
X892740D01*
X893980Y340756D01*
X894910Y339922D01*
X895685Y338673D01*
X896305Y337214D01*
X896460Y335130D01*
X896305Y333047D01*
X895685Y331589D01*
X894910Y330339D01*
X893980Y329506D01*
X892740Y328881D01*
X889640D01*
G01X827950Y365150D02*
Y377650D01*
X831670D01*
X832910Y377025D01*
X833840Y375567D01*
X834150Y373900D01*
X833840Y372233D01*
X833065Y370983D01*
X831670Y370358D01*
X827950D01*
G01X840350Y377650D02*
Y365150D01*
X846550D01*
G01X851975D02*
X855850Y377650D01*
X859725Y365150D01*
G01X858330Y369525D02*
X853370D01*
G01X868250Y377650D02*
Y365150D01*
G01X864685Y377650D02*
X871815D01*
G01X883750Y365150D02*
X877550D01*
Y377650D01*
X883750D01*
G01X881270Y371608D02*
X877550D01*
G01X889640Y365150D02*
Y377650D01*
X892740D01*
X893980Y377025D01*
X894910Y376192D01*
X895685Y374942D01*
X896305Y373483D01*
X896460Y371400D01*
X896305Y369316D01*
X895685Y367858D01*
X894910Y366608D01*
X893980Y365775D01*
X892740Y365150D01*
X889640D01*
G01X925600Y383900D02*
Y-98925D01*
G01X951950Y328881D02*
Y341381D01*
X950090Y338881D01*
G01Y328881D02*
X953810D01*
G01X964350D02*
X965435Y329089D01*
X966675Y329714D01*
X967450Y330755D01*
X967760Y332214D01*
X967450Y333672D01*
X966520Y334922D01*
X965125Y335548D01*
X963575D01*
X962645Y335964D01*
X961870Y337006D01*
X961560Y338464D01*
X962025Y339922D01*
X963110Y340964D01*
X964350Y341381D01*
X965590Y340964D01*
X966675Y339922D01*
X967140Y338464D01*
X966830Y337006D01*
X966055Y335964D01*
X965125Y335548D01*
X963575D01*
X962180Y334922D01*
X961250Y333672D01*
X960940Y332214D01*
X961250Y330755D01*
X962025Y329714D01*
X963265Y329089D01*
X964350Y328881D01*
G01X976750D02*
X977835Y329089D01*
X979075Y329714D01*
X979850Y330755D01*
X980160Y332214D01*
X979850Y333672D01*
X978920Y334922D01*
X977525Y335548D01*
X975975D01*
X975045Y335964D01*
X974270Y337006D01*
X973960Y338464D01*
X974425Y339922D01*
X975510Y340964D01*
X976750Y341381D01*
X977990Y340964D01*
X979075Y339922D01*
X979540Y338464D01*
X979230Y337006D01*
X978455Y335964D01*
X977525Y335548D01*
X975975D01*
X974580Y334922D01*
X973650Y333672D01*
X973340Y332214D01*
X973650Y330755D01*
X974425Y329714D01*
X975665Y329089D01*
X976750Y328881D01*
G01X951950Y365150D02*
X950710Y365358D01*
X949625Y366191D01*
X948695Y367442D01*
X948075Y368900D01*
X947765Y370567D01*
Y372233D01*
X948075Y373900D01*
X948695Y375358D01*
X949625Y376608D01*
X950710Y377442D01*
X951950Y377650D01*
X953190Y377442D01*
X954275Y376608D01*
X955205Y375358D01*
X955825Y373900D01*
X956135Y372233D01*
Y370567D01*
X955825Y368900D01*
X955205Y367442D01*
X954275Y366191D01*
X953190Y365358D01*
X951950Y365150D01*
G01X953190Y368483D02*
X955050Y365150D01*
G01X964350Y377650D02*
Y365150D01*
G01X960785Y377650D02*
X967915D01*
G01X976750Y365150D02*
Y370775D01*
X973650Y377650D01*
G01X979850D02*
X976750Y370775D01*
G01X961405Y-74089D02*
X962335Y-72839D01*
X963420Y-72214D01*
X964660Y-72006D01*
X966210Y-72422D01*
X967295Y-73464D01*
X967605Y-74714D01*
X967450Y-75964D01*
X966830Y-77006D01*
X963730Y-79089D01*
X962335Y-80548D01*
X961405Y-82631D01*
X961095Y-84506D01*
X967605D01*
G01X964350Y-43167D02*
Y-30667D01*
X962490Y-33167D01*
G01Y-43167D02*
X966210D01*
G01X964350Y-1828D02*
X965435Y-1620D01*
X966675Y-995D01*
X967450Y46D01*
X967760Y1505D01*
X967450Y2963D01*
X966520Y4213D01*
X965125Y4838D01*
X963575D01*
X962645Y5255D01*
X961870Y6296D01*
X961560Y7755D01*
X962025Y9213D01*
X963110Y10255D01*
X964350Y10672D01*
X965590Y10255D01*
X966675Y9213D01*
X967140Y7755D01*
X966830Y6296D01*
X966055Y5255D01*
X965125Y4838D01*
X963575D01*
X962180Y4213D01*
X961250Y2963D01*
X960940Y1505D01*
X961250Y46D01*
X962025Y-995D01*
X963265Y-1620D01*
X964350Y-1828D01*
G01X958150Y39510D02*
Y52010D01*
X956290Y49510D01*
G01Y39510D02*
X960010D01*
G01X967605Y44718D02*
X968690Y46177D01*
X969620Y47010D01*
X970860Y47427D01*
X971945Y47010D01*
X972720Y46177D01*
X973340Y44927D01*
X973495Y43468D01*
X973340Y42218D01*
X972720Y40968D01*
X971790Y39927D01*
X970705Y39510D01*
X969465Y39927D01*
X968380Y41176D01*
X967760Y43052D01*
X967605Y45135D01*
X967915Y47843D01*
X968380Y49302D01*
X969155Y50760D01*
X970240Y51802D01*
X971325Y52010D01*
X972410Y51593D01*
X973185Y50552D01*
G01X960940Y82723D02*
X961870Y81682D01*
X962955Y81057D01*
X964350Y80849D01*
X965745Y81265D01*
X966830Y82099D01*
X967605Y83557D01*
X967760Y85224D01*
X967450Y86890D01*
X966675Y87932D01*
X965590Y88765D01*
X964505Y88974D01*
X963420Y88765D01*
X962025Y87932D01*
X962490Y93349D01*
X966675D01*
G01X964350Y122187D02*
Y134687D01*
X962490Y132188D01*
G01Y122187D02*
X966210D01*
G01X961715Y164984D02*
X962800Y163943D01*
X964040Y163526D01*
X965280Y163943D01*
X966365Y165192D01*
X967140Y167068D01*
X967450Y168943D01*
Y171234D01*
X967140Y173109D01*
X966365Y174776D01*
X965435Y175610D01*
X964350Y176026D01*
X963110Y175610D01*
X962180Y174776D01*
X961560Y173526D01*
X961250Y171859D01*
X961560Y170401D01*
X962335Y168943D01*
X963265Y168109D01*
X964350Y167901D01*
X965590Y168318D01*
X966520Y169359D01*
X967450Y171234D01*
G01X964350Y204865D02*
Y217365D01*
X962490Y214865D01*
G01Y204865D02*
X966210D01*
G01X960010Y246203D02*
Y258703D01*
X954275Y249745D01*
X962025D01*
G01X972410Y246203D02*
Y258703D01*
X966675Y249745D01*
X974425D01*
G01X958150Y287542D02*
Y300042D01*
X956290Y297542D01*
G01Y287542D02*
X960010D01*
G01X967915Y289000D02*
X969000Y287959D01*
X970240Y287542D01*
X971480Y287959D01*
X972565Y289208D01*
X973340Y291084D01*
X973650Y292959D01*
Y295250D01*
X973340Y297125D01*
X972565Y298792D01*
X971635Y299625D01*
X970550Y300042D01*
X969310Y299625D01*
X968380Y298792D01*
X967760Y297542D01*
X967450Y295875D01*
X967760Y294417D01*
X968535Y292959D01*
X969465Y292125D01*
X970550Y291917D01*
X971790Y292333D01*
X972720Y293375D01*
X973650Y295250D01*
G54D12*
X11285Y252185D03*
X18232Y312968D03*
X35850Y169350D03*
X27876Y320124D03*
X47800Y26300D03*
Y68200D03*
X48200Y110600D03*
X40390Y194510D03*
X41900Y186400D03*
X48500Y317100D03*
X59000Y196300D03*
X58100Y186100D03*
X55000Y225300D03*
Y246500D03*
Y267700D03*
Y310000D03*
Y331200D03*
X54900Y347600D03*
X87000Y25000D03*
X77600Y224400D03*
Y229100D03*
Y219700D03*
X76200Y310000D03*
Y331200D03*
X90400Y145000D03*
X88700Y173900D03*
X88100Y225500D03*
X97400Y246500D03*
Y267700D03*
Y331200D03*
X119100Y147800D03*
X108100Y227700D03*
X118600Y246500D03*
Y267700D03*
Y310000D03*
X105330Y346370D03*
X113000Y342000D03*
X127200Y-18300D03*
Y24100D03*
Y66500D03*
Y108800D03*
X136300Y133600D03*
X122100Y152300D03*
X134350Y180750D03*
X128100Y232700D03*
X134900Y245400D03*
X151500Y132800D03*
X154100Y150600D03*
X144300Y152100D03*
X148700Y190800D03*
Y205200D03*
X139800Y267700D03*
X145800Y257700D03*
X150200Y283800D03*
X139800Y310000D03*
Y331200D03*
X169600Y-18300D03*
Y24100D03*
Y66500D03*
Y108800D03*
X166000Y161400D03*
X159800Y171800D03*
X160200Y280000D03*
X170200Y277500D03*
X172500Y138400D03*
X181300Y217100D03*
X179800Y231400D03*
X172300Y248600D03*
X184700Y262000D03*
X188600Y264500D03*
X186000Y298200D03*
X195400Y213400D03*
X194000Y224600D03*
X202338Y230335D03*
X205900Y219800D03*
X206000Y231700D03*
X203800Y249000D03*
X193400Y307000D03*
Y326300D03*
X211900Y-60600D03*
X207200Y183400D03*
X219700Y182300D03*
X213600Y253600D03*
X209500Y253800D03*
X217100Y254600D03*
X217500Y258600D03*
X212200Y261100D03*
X209200Y263700D03*
X217600Y269800D03*
X220700Y272800D03*
X210000Y277200D03*
X212900Y279800D03*
X215700Y273035D03*
X220900Y277000D03*
X216500Y339400D03*
X227700Y193800D03*
X230200Y220900D03*
X239600Y229600D03*
X227700Y232000D03*
X223600Y269800D03*
X233100Y271700D03*
X236100Y292900D03*
X230900Y296600D03*
X254300Y-60600D03*
Y-18300D03*
Y24100D03*
X254700Y66500D03*
Y108800D03*
X247900Y145400D03*
X249400Y184400D03*
X252500Y200200D03*
X242200Y209400D03*
X248400Y215300D03*
X240100Y234400D03*
X249300Y225000D03*
X252500Y248600D03*
Y237300D03*
X249900Y268500D03*
X254600Y263800D03*
X249700Y261900D03*
X248795Y276195D03*
X251700Y280000D03*
X248800Y293200D03*
X251700Y290000D03*
X245700Y310000D03*
X266800Y182900D03*
X268600Y172200D03*
X272650Y225150D03*
X266600Y279300D03*
X266800Y310000D03*
Y331200D03*
X288600Y200500D03*
X280300Y238500D03*
X288000Y310000D03*
Y331200D03*
X296600Y-60600D03*
Y24100D03*
X297100Y66500D03*
X296600Y108800D03*
X305500Y172000D03*
X301700Y208600D03*
X293750Y225150D03*
X295300Y251600D03*
X293200Y274100D03*
X312000Y148800D03*
X311300Y138800D03*
X309200Y267700D03*
X320700Y264600D03*
X309200Y310000D03*
Y331200D03*
X339000Y-60600D03*
Y-18300D03*
Y66500D03*
X340200Y108700D03*
X335000Y148000D03*
X335302Y137303D03*
X326900Y188300D03*
X330400Y204100D03*
Y225300D03*
Y267700D03*
Y310000D03*
Y331200D03*
X330600Y352600D03*
X351600Y140600D03*
Y161800D03*
Y182900D03*
X346800Y176300D03*
X351600Y225300D03*
X342900Y258700D03*
X351600Y310000D03*
Y331200D03*
Y352400D03*
X372700Y140600D03*
X366700Y246900D03*
X366600Y259200D03*
X372700Y310000D03*
Y331200D03*
Y352400D03*
X388600Y178000D03*
X387900Y210100D03*
X387800Y249100D03*
X404200Y259200D03*
X395200Y274400D03*
X423200Y183700D03*
X410100Y188900D03*
X423200Y213100D03*
X414831Y311569D03*
X435900Y197000D03*
X564450Y335131D03*
G54D13*
X28037Y197067D03*
X564450Y211115D03*
G54D14*
X27876Y302968D03*
X64232Y148676D03*
X76926Y346370D03*
X120198Y346447D03*
X185232Y147776D03*
X218831Y-34146D03*
X239850Y147600D03*
X291950D03*
X421046Y311569D03*
X564450Y169776D03*
G54D15*
X27876Y312968D03*
X54232Y148676D03*
X86926Y346370D03*
X96926D03*
X130198Y346447D03*
X150198D03*
X140198D03*
X170198D03*
X160198D03*
X175232Y147776D03*
X190198Y346447D03*
X180198D03*
X200198D03*
X219850Y147600D03*
X209850D03*
X220198Y346447D03*
X210198D03*
X238831Y-34146D03*
X228831D03*
X229850Y147600D03*
X240198Y346447D03*
X230198D03*
X248831Y-34146D03*
X250198Y346447D03*
X268831Y-34146D03*
X258831D03*
X271950Y147600D03*
X261950D03*
X270198Y346447D03*
X260198D03*
X288831Y-34146D03*
X278831D03*
X281950Y147600D03*
X290198Y346447D03*
X280198D03*
X300198D03*
X310198D03*
X421046Y241569D03*
Y251569D03*
Y261569D03*
Y271569D03*
Y281569D03*
Y291569D03*
Y301569D03*
X564450Y252453D03*
G54D16*
X48900Y-48600D03*
Y-600D03*
X68900Y-48600D03*
Y-600D03*
X90500Y51200D03*
Y99200D03*
X110500Y51200D03*
Y99200D03*
X148900Y-48600D03*
Y-600D03*
X168900Y-48600D03*
Y-600D03*
X190400Y51300D03*
Y99300D03*
X210400Y51300D03*
Y99300D03*
X564450Y45760D03*
G54D17*
X321200Y15800D03*
Y25700D03*
Y35600D03*
X380300Y15800D03*
Y35600D03*
X564450Y87099D03*
G54D18*
X350700Y-100D03*
Y51400D03*
X564450Y-78256D03*
G54D19*
X374200Y197100D03*
X564450Y-36917D03*
M02*
